<?xml version="1.0" standalone="no"?>
<!DOCTYPE svg PUBLIC "-//W3C//DTD SVG 1.1//EN" "http://www.w3.org/Graphics/SVG/1.1/DTD/svg11.dtd" >
<svg xmlns="http://www.w3.org/2000/svg" xmlns:xlink="http://www.w3.org/1999/xlink" version="1.1">
<metadata>
Created by FontForge 20170731 at Sat Jun 12 20:58:43 2021
 By Aleksey,,,
Copyright (c) 2019, Andika Fez | Contact: andikafez@gmail.com
</metadata>
<defs>
<font id="ROCKETWILDNESS" horiz-adv-x="1513" >
  <font-face 
    font-family="ROCKETWILDNESS"
    font-weight="400"
    font-stretch="normal"
    units-per-em="2048"
    panose-1="2 0 5 3 0 0 0 0 0 0"
    ascent="1638"
    descent="-410"
    x-height="1268"
    cap-height="1268"
    bbox="-70 -533 2507 1950"
    underline-thickness="102"
    underline-position="-307"
    unicode-range="U+0020-E01A"
  />
<missing-glyph horiz-adv-x="1024" 
d="M102 0v1092h820v-1092h-820zM205 102h614v887h-614v-887z" />
    <glyph glyph-name=".notdef" horiz-adv-x="1024" 
d="M102 0v1092h820v-1092h-820zM205 102h614v887h-614v-887z" />
    <glyph glyph-name=".null" horiz-adv-x="0" 
 />
    <glyph glyph-name="nonmarkingreturn" horiz-adv-x="682" 
 />
    <glyph glyph-name="space" unicode=" " horiz-adv-x="1433" 
 />
    <glyph glyph-name="exclam" unicode="!" horiz-adv-x="96" 
d="M33 -25q0 -14 14 -14t14 14v1300q0 13 -14 13q-5 0 -9.5 -4t-4.5 -9v-1300zM98 -235q0 -20 -14.5 -34t-35.5 -14t-34.5 14t-13.5 34q0 21 13.5 35t34.5 14t35.5 -14.5t14.5 -34.5z" />
    <glyph glyph-name="quotedbl" unicode="&#x22;" horiz-adv-x="561" 
d="M288 1355q5 0 9.5 -4.5t4.5 -9.5q0 -3 -2 -7l-275 -457q-3 -6 -11 -6q-14 0 -14 13q0 3 2 7l274 457q4 7 12 7zM548 1355q5 0 9.5 -4.5t4.5 -9.5q0 -3 -2 -7l-274 -457q-3 -6 -12 -6q-14 0 -14 13q0 3 2 7l274 457q4 7 12 7z" />
    <glyph glyph-name="numbersign" unicode="#" horiz-adv-x="1970" 
d="M758 1268q5 0 9 -4.5t4 -9.5v-2l-50 -350h704l50 354q2 12 14 12q5 0 9 -4.5t4 -9.5v-2l-50 -350h219h1q13 0 13 -14q0 -13 -13 -13h-1h-223l-74 -521h206q14 0 14 -14q0 -13 -14 -13h-210l-51 -354q-2 -12 -13 -12q-14 0 -14 13v3l50 350h-703l-51 -354q-2 -12 -13 -12
q-14 0 -14 14v2l50 350h-310h-1q-13 0 -13 13q0 14 13 14h1h314l75 521h-298q-14 0 -14 13q0 14 14 14h302l50 354q2 12 14 12zM717 875l-74 -521h703l75 521h-704z" />
    <glyph glyph-name="dollar" unicode="$" horiz-adv-x="1724" 
d="M893 1451q14 0 14 -14v-169q164 -2 293 -48t207 -122q4 -4 4 -10q0 -14 -13 -14q-5 0 -10 5q-73 71 -197.5 115t-283.5 46v-619q239 -45 352 -92q84 -35 129 -84q51 -56 51 -129q0 -81 -48 -148t-130 -114q-150 -86 -354 -92v-170q0 -14 -14 -14q-13 0 -13 14v169h-3
q-350 0 -585 174q-5 3 -5 11q0 14 13 14q3 0 9 -3q227 -168 568 -168h3v609q-1 0 -2.5 0.5t-2.5 0.5q-272 52 -380 98q-85 37 -129 85q-51 56 -51 132q0 64 39.5 127t112.5 113q162 111 413 114v169q0 5 4 9.5t9 4.5zM880 1240q-243 -3 -397 -108q-68 -47 -104 -104.5
t-36 -113.5q0 -66 43 -114q38 -42 120 -78q104 -45 374 -96v614zM907 593v-604q195 6 340 89q165 94 165 238q0 62 -44 111q-39 44 -119 77q-104 44 -342 89z" />
    <glyph glyph-name="percent" unicode="%" horiz-adv-x="1390" 
d="M1011 1359q14 0 14 -14q0 -4 -1 -5l-640 -1462q-4 -9 -12 -9q-14 0 -14 14q0 4 1 6l640 1462q3 8 12 8zM463 1359q77 0 131 -53t54 -128t-54 -127.5t-131 -52.5q-76 0 -126 52.5t-50 127.5t50 128t126 53zM463 1332q-65 0 -107 -44.5t-42 -109.5t42 -109t107 -44
q66 0 112 44.5t46 108.5t-46 109t-112 45zM920 231q77 0 131 -53t54 -128t-54 -127.5t-131 -52.5q-76 0 -126 52.5t-50 127.5t50 128t126 53zM920 203q-65 0 -107 -44t-42 -109t42 -109t107 -44q66 0 111.5 44.5t45.5 108.5t-45.5 108.5t-111.5 44.5z" />
    <glyph glyph-name="ampersand" unicode="&#x26;" horiz-adv-x="1624" 
d="M411 1268h822q14 0 14 -14t-14 -14h-796l759 -1062q2 3 6.5 10t7.5 11q101 158 101 415v1q0 13 13 13q14 0 14 -13v-1q0 -265 -105 -430q-2 -3 -20 -29l123 -172q2 -4 2 -8q0 -14 -14 -14q-7 0 -11 6l-118 166q-145 -172 -419 -172q-140 0 -252.5 68t-174.5 182.5
t-62 251.5q0 167 90.5 297.5t240.5 179.5l-218 306q-3 6 -3 8q0 14 14 14zM635 916q-145 -44 -233 -168t-88 -285q0 -200 130.5 -337t331.5 -137q269 0 403 166z" />
    <glyph glyph-name="quotesingle" unicode="'" horiz-adv-x="301" 
d="M288 1355q5 0 9.5 -4.5t4.5 -9.5q0 -3 -2 -7l-275 -457q-3 -6 -11 -6q-14 0 -14 13q0 3 2 7l274 457q4 7 12 7z" />
    <glyph glyph-name="parenleft" unicode="(" horiz-adv-x="301" 
d="M288 1451q-2 0 -8 -3q-8 -5 -21.5 -16.5t-51 -57t-68.5 -102.5q-139 -254 -139 -658q0 -403 139 -657q31 -57 66.5 -101t54.5 -60l20 -15q6 -3 8 -3q14 0 14 14q0 6 -7 11t-20 15.5t-47.5 53.5t-64.5 98q-136 250 -136 644q0 395 136 645q30 55 63 96.5t51 55.5l18 14
q7 5 7 12q0 14 -14 14z" />
    <glyph glyph-name="parenright" unicode=")" horiz-adv-x="301" 
d="M14 1451q1 0 7 -3q3 -2 8 -6t21.5 -19t32.5 -33.5t38 -50t42 -67.5q139 -254 139 -658q0 -403 -139 -657q-31 -57 -66.5 -101t-55.5 -60l-20 -15q-6 -3 -7 -3q-14 0 -14 14q0 7 6 11q7 5 20 15.5t48 53.5t65 98q135 248 135 644q0 397 -135 645q-30 55 -63 96.5t-52 55.5
l-18 14q-6 4 -6 12q0 14 14 14z" />
    <glyph glyph-name="asterisk" unicode="*" horiz-adv-x="514" 
d="M257 1611h1q13 0 13 -14v-257l222 166q3 3 8 3t9.5 -4t4.5 -9q0 -7 -6 -11l-229 -172l229 -172q6 -4 6 -11q0 -14 -14 -14q-5 0 -8 3l-222 166v-256v-1q0 -13 -13 -13q-14 0 -14 13v1v256l-222 -166q-3 -3 -8 -3q-14 0 -14 14q0 7 6 11l229 172l-229 172q-6 4 -6 11
q0 13 13 13h1q5 0 8 -3l222 -166v257q0 5 4 9.5t9 4.5z" />
    <glyph glyph-name="plus" unicode="+" horiz-adv-x="849" 
d="M439 628h397h1q13 0 13 -14q0 -13 -13 -13h-1h-397v-398q0 -14 -14 -14q-13 0 -13 14v398h-398q-14 0 -14 13q0 14 14 14h398v398q0 14 13 14q14 0 14 -14v-398z" />
    <glyph glyph-name="comma" unicode="," horiz-adv-x="301" 
d="M288 160q5 0 9.5 -4t4.5 -9q0 -4 -2 -8l-275 -456q-3 -7 -11 -7q-14 0 -14 14q0 3 2 7l274 457q3 6 12 6z" />
    <glyph glyph-name="hyphen" unicode="-" horiz-adv-x="849" 
d="M14 628h822h1q13 0 13 -14q0 -13 -13 -13h-1h-822q-14 0 -14 13q0 14 14 14z" />
    <glyph glyph-name="period" unicode="." horiz-adv-x="96" 
d="M98 11q0 -20 -14.5 -34t-35.5 -14t-34.5 14t-13.5 34q0 21 13.5 35t34.5 14t35.5 -14.5t14.5 -34.5z" />
    <glyph glyph-name="slash" unicode="/" horiz-adv-x="665" 
d="M653 1359q14 0 14 -14q0 -4 -1 -5l-640 -1462q-4 -9 -12 -9q-14 0 -14 14q0 4 1 6l640 1462q3 8 12 8z" />
    <glyph glyph-name="zero" unicode="0" horiz-adv-x="1044" 
d="M529 1268q77 0 144.5 -39t117.5 -116q111 -173 111 -499q0 -325 -111 -498q-50 -77 -117.5 -116t-144.5 -39t-146.5 39t-121.5 116q-118 176 -118 498q0 323 118 499q52 77 121.5 116t146.5 39zM529 1240q-151 0 -246 -142q-112 -167 -112 -484q0 -316 112 -483
q95 -142 246 -142q148 0 239 142q106 166 106 483q0 318 -106 484q-91 142 -239 142z" />
    <glyph glyph-name="one" unicode="1" horiz-adv-x="587" 
d="M157 1268h275q13 0 13 -14v-1279q0 -14 -13 -14q-14 0 -14 14v1265h-261q-14 0 -14 14t14 14z" />
    <glyph glyph-name="two" unicode="2" horiz-adv-x="1134" 
d="M570 1268q229 0 322 -135q57 -83 57 -207q0 -82 -32 -166.5t-91 -165.5t-122 -149t-146 -143l-1 -1l-1 -1q-73 -66 -197.5 -170.5t-164.5 -141.5h784q14 0 14 -13q0 -14 -14 -14h-821q-14 0 -14 14q0 5 4 9q42 42 180 156t212 181q382 345 382 605q0 119 -51 192
q-85 122 -300 122v0q-85 1 -171.5 -32.5t-156.5 -97.5q-4 -4 -10 -4q-14 0 -14 14q0 8 5 11q74 67 165.5 102.5t181.5 34.5z" />
    <glyph glyph-name="three" unicode="3" horiz-adv-x="1079" 
d="M466 1268q192 0 298 -58q147 -80 147 -268q0 -98 -57 -166q-46 -55 -138 -89q-59 -22 -137 -32q95 -16 171 -52q187 -87 187 -283q0 -193 -160 -287q-123 -72 -311 -72q-159 0 -311 94l-12 7l15 23l11 -7q145 -89 297 -89q183 0 298 67q145 84 145 264q0 179 -171 259
q-136 64 -363 64h-14v28h14q219 0 332 41q81 29 126 82q50 60 50 148q0 172 -132 244q-99 54 -285 54q-140 0 -297 -89l-12 -7l-13 24l11 7q161 93 311 93z" />
    <glyph glyph-name="four" unicode="4" horiz-adv-x="1044" 
d="M249 1268q5 0 9 -4.5t4 -9.5v-2l-89 -624h701v626q0 5 4.5 9.5t9.5 4.5q14 0 14 -14v-637v-3v-3v-636q0 -14 -14 -14t-14 14v626h-717q-14 0 -14 13v2l92 640q2 12 13 12h1z" />
    <glyph glyph-name="five" unicode="5" horiz-adv-x="1122" 
d="M321 1268h555q14 0 14 -14t-14 -14h-543l-84 -569l26 13t28.5 14t29 13.5t33 14t33 12t38 12t39.5 9t45.5 7.5t48 4t53.5 2q163 0 262 -112q96 -108 96 -281q0 -73 -28.5 -146t-81.5 -134.5t-137.5 -99.5t-185.5 -38q-224 0 -401 190q-4 4 -4 9q0 14 14 14q7 0 10 -5
q165 -180 381 -180q96 0 175.5 36t128 93t75 125t26.5 136q0 164 -88 263q-91 102 -242 102q-56 0 -104 -6t-91.5 -21t-67.5 -24.5t-67.5 -31t-55.5 -27.5q-2 -1 -5 -1q-14 0 -14 14v2l89 607q2 12 14 12z" />
    <glyph glyph-name="six" unicode="6" horiz-adv-x="1064" 
d="M780 1268q13 0 13 -14q0 -11 -10 -13q-308 -84 -482 -393q-56 -101 -92 -225q127 109 334 109q162 0 270.5 -113t108.5 -279q0 -96 -47 -182t-136 -141.5t-198 -55.5q-208 0 -315 153q-83 118 -83 282q0 92 33.5 218.5t100.5 247.5q80 143 204 250.5t295 154.5l2 1h2z
M543 705q-227 0 -346 -128h-1q-25 -103 -25 -181q0 -157 77 -266q100 -142 293 -142q102 0 184.5 52t125.5 132t43 168q0 156 -99.5 260.5t-251.5 104.5z" />
    <glyph glyph-name="seven" unicode="7" horiz-adv-x="1044" 
d="M157 1268h731q14 0 14 -14q0 -4 -1 -5l-548 -1279q-4 -9 -13 -9q-14 0 -14 14q0 1 2 5l540 1260h-711q-14 0 -14 14t14 14z" />
    <glyph glyph-name="eight" unicode="8" horiz-adv-x="1177" 
d="M590 1268q168 0 280 -75q132 -88 132 -245q0 -156 -132 -230q-59 -33 -133 -47q87 -18 148 -55q151 -91 151 -285q0 -193 -151 -292q-119 -78 -295 -78q-177 0 -296 78q-151 99 -151 292t152 285q61 37 148 55q-74 14 -134 47q-133 74 -133 230q0 157 132 245
q112 75 282 75zM590 1241q-160 0 -267 -71q-120 -80 -120 -222q0 -141 119 -207q99 -56 264 -56l2 1h2h2l2 -1q163 0 262 56q119 66 119 207q0 142 -120 222q-107 71 -265 71zM577 659q-162 -2 -269 -66q-138 -83 -138 -262t139 -270q112 -73 281 -73t281 73q138 90 138 270
q0 179 -138 262q-107 64 -269 66q-2 0 -6 -0.5t-6 -0.5t-6.5 0.5t-6.5 0.5z" />
    <glyph glyph-name="nine" unicode="9" horiz-adv-x="1064" 
d="M524 1268q207 0 315 -154q83 -118 83 -281q0 -92 -33.5 -218.5t-100.5 -247.5q-80 -143 -204 -250.5t-295 -154.5q-1 0 -2 -0.5t-2 -0.5q-13 0 -13 14q0 11 10 13q309 84 482 392q55 100 92 226q-129 -110 -333 -110q-162 0 -271 113.5t-109 279.5q0 96 47 182t136 141.5
t198 55.5zM524 1240q-102 0 -184.5 -51.5t-125.5 -131.5t-43 -168q0 -156 100 -260.5t252 -104.5q226 0 345 128h1q25 103 25 181q0 157 -77 266q-99 141 -293 141z" />
    <glyph glyph-name="colon" unicode=":" horiz-adv-x="96" 
d="M98 785q0 -20 -14.5 -34.5t-35.5 -14.5t-34.5 14t-13.5 35t13.5 35t34.5 14t35.5 -14.5t14.5 -34.5zM98 440q0 -20 -14.5 -34.5t-35.5 -14.5t-34.5 14t-13.5 35q0 20 13.5 34t34.5 14t35.5 -14t14.5 -34z" />
    <glyph glyph-name="semicolon" unicode=";" horiz-adv-x="303" 
d="M288 485q5 0 9.5 -4.5t4.5 -9.5q0 -3 -2 -7l-275 -457q-3 -7 -11 -7q-14 0 -14 14q0 3 2 7l274 457q4 7 12 7zM305 785q0 -20 -14.5 -34.5t-35.5 -14.5t-34.5 14t-13.5 35t13.5 35t34.5 14t35.5 -14.5t14.5 -34.5z" />
    <glyph glyph-name="less" unicode="&#x3c;" horiz-adv-x="483" 
d="M471 1085q-6 0 -10 -4l-457 -457q-4 -4 -4 -10q0 -5 4 -9l457 -457q4 -4 10 -4q14 0 14 13q0 5 -5 10l-447 447l447 448q4 4 4 9q0 14 -13 14z" />
    <glyph glyph-name="equal" unicode="=" horiz-adv-x="849" 
d="M14 795h822h1q13 0 13 -14t-13 -14h-1h-822q-14 0 -14 14t14 14zM14 459h822h1q13 0 13 -14t-13 -14h-1h-822q-14 0 -14 14t14 14z" />
    <glyph glyph-name="greater" unicode="&#x3e;" horiz-adv-x="483" 
d="M14 1085q6 0 10 -4l457 -457q4 -4 4 -10q0 -5 -4 -9l-457 -457q-4 -4 -10 -4q-14 0 -14 13q0 6 4 10l447 447l-447 448q-4 4 -4 9q0 14 14 14z" />
    <glyph glyph-name="question" unicode="?" horiz-adv-x="729" 
d="M213 -235q0 -20 -14.5 -34t-35.5 -14t-34 13.5t-13 34.5t13 35t34 14t35.5 -14.5t14.5 -34.5zM351 1359q228 0 323 -154q56 -91 56 -225q0 -64 -16 -119.5t-54 -113t-66 -90.5t-87 -98q-4 -5 -6.5 -7.5t-6.5 -7t-7 -7.5q-47 -51 -76.5 -86t-71 -92.5t-68 -110t-51.5 -125
t-38 -150.5q-2 -12 -14 -12q-14 0 -14 13v1q1 1 1 2q16 99 48 185t80 159.5t86.5 121.5t97.5 112q112 122 148 172q88 124 88 253q0 123 -53 211q-85 141 -299 141v0q-85 1 -171.5 -32.5t-156.5 -97.5q-4 -4 -9 -4q-14 0 -14 14q0 7 5 10q74 67 165.5 102.5t180.5 34.5z" />
    <glyph glyph-name="at" unicode="@" horiz-adv-x="2189" 
d="M1076 1423q170 0 323.5 -64t264 -172.5t175.5 -258t65 -314.5q0 -206 -91 -364q-44 -77 -104.5 -121.5t-130.5 -44.5q-46 0 -87 36q-37 33 -65 88v1l-107 249h-447l-107 -249q-3 -8 -12 -8q-14 0 -14 13q0 5 1 6l343 800q3 8 12 8q10 0 13 -8l343 -799q28 -53 58 -81
q32 -29 69 -29q61 0 115.5 40t95.5 112q88 153 88 351q0 159 -63 304t-169.5 249.5t-255 166.5t-313.5 62q-164 0 -307 -61.5t-242 -167t-156 -249.5t-57 -304t57 -304t156 -249t242 -166.5t307 -61.5q168 0 314 61q2 2 5 2q13 0 13 -14q0 -10 -8 -13q-152 -63 -324 -63
q-169 0 -317 64t-251 172.5t-162 257t-59 314.5t59 314.5t162 257.5t251 173t317 64zM1095 980l-211 -495h423z" />
    <glyph glyph-name="A" unicode="A" horiz-adv-x="1695" 
d="M848 1268h1q9 0 12 -8l549 -1280q1 -2 1 -5q0 -14 -14 -14q-9 0 -13 9l-535 1249l-536 -1249q-4 -9 -13 -9q-13 0 -13 14q0 3 1 5l548 1280q4 8 12 8z" />
    <glyph glyph-name="B" unicode="B" horiz-adv-x="1511" 
d="M300 1267h428q187 0 294 -50q159 -74 159 -251q0 -178 -159 -259q-58 -30 -127 -44q98 -14 164 -49q167 -86 167 -294q0 -207 -166 -296q-115 -62 -303 -62h-457q-13 0 -13 13t13 13h457q180 0 290 59q154 82 154 273t-153 271q-107 56 -291 56h-29h-428q-13 0 -13 13
t13 13h428q174 0 283 56q144 74 144 237q0 161 -144 228q-101 47 -283 47h-428q-13 0 -13 13t13 13z" />
    <glyph glyph-name="C" unicode="C" horiz-adv-x="1695" 
d="M940 1268q138 0 258 -49t209 -138q4 -4 4 -10q0 -13 -14 -13q-6 0 -10 4q-85 85 -200 131.5t-247 46.5q-133 0 -249 -47.5t-199 -130.5t-130.5 -199t-47.5 -249q0 -177 81 -320t224.5 -224t320.5 -81q132 0 247 46.5t200 131.5q4 4 10 4q14 0 14 -13q0 -6 -4 -10
q-89 -89 -209 -138t-258 -49q-137 0 -258.5 50t-208 136.5t-136.5 208t-50 258.5q0 183 85 333t235 235.5t333 85.5z" />
    <glyph glyph-name="D" unicode="D" 
d="M300 1268h183q394 0 581 -187q164 -164 164 -467q0 -302 -164 -466q-187 -187 -581 -187h-183q-13 0 -13 14t13 14h183q384 0 562 178q155 155 155 447q0 293 -155 448q-178 178 -562 178h-183q-13 0 -13 14t13 14z" />
    <glyph glyph-name="E" unicode="E" 
d="M300 1268h914q14 0 14 -14t-14 -14h-914q-13 0 -13 14t13 14zM300 628h823q14 0 14 -14q0 -13 -14 -13h-823q-13 0 -13 13q0 14 13 14zM300 -11h914q14 0 14 -14t-14 -14h-914q-13 0 -13 14t13 14z" />
    <glyph glyph-name="F" unicode="F" 
d="M300 1268h914q14 0 14 -14t-14 -14h-914q-13 0 -13 14t13 14zM300 628h823q14 0 14 -14q0 -13 -14 -13h-809v-626q0 -14 -14 -14q-13 0 -13 14v639q0 14 13 14z" />
    <glyph glyph-name="G" unicode="G" horiz-adv-x="1695" 
d="M940 1268q138 0 258 -49t209 -138q4 -4 4 -10q0 -13 -14 -13q-6 0 -10 4q-85 85 -200 131.5t-247 46.5q-133 0 -249 -47.5t-199 -130.5t-130.5 -199t-47.5 -249q0 -177 81 -320t224.5 -224t320.5 -81q131 0 244.5 46t198.5 129v437h-626q-13 0 -13 13q0 14 13 14h640
q14 0 14 -14v-456q0 -6 -4 -10q-89 -89 -209 -138t-258 -49q-137 0 -258.5 50t-208 136.5t-136.5 208t-50 258.5q0 183 85 333t235 235.5t333 85.5z" />
    <glyph glyph-name="H" unicode="H" 
d="M300 1268q14 0 14 -14v-626h886v626q0 5 4.5 9.5t9.5 4.5q14 0 14 -14v-1279q0 -14 -14 -14t-14 14v626h-886v-626q0 -14 -14 -14q-13 0 -13 14v1279q0 5 4 9.5t9 4.5z" />
    <glyph glyph-name="I" unicode="I" horiz-adv-x="600" 
d="M287 1254q0 5 4 9.5t9 4.5q14 0 14 -14v-1279q0 -14 -14 -14q-5 0 -9 4.5t-4 9.5v1279z" />
    <glyph glyph-name="J" unicode="J" horiz-adv-x="1466" 
d="M1167 1267h1q12 0 12 -13v-822q0 -251 -165 -376q-124 -94 -304 -94q-181 0 -305 94q-78 58 -118 144q-1 1 -1 6q0 13 13 13q7 0 11 -8q40 -82 110 -135q117 -88 290 -88q172 0 289 88q155 116 155 356v822q0 13 12 13z" />
    <glyph glyph-name="K" unicode="K" horiz-adv-x="1546" 
d="M300 1268q14 0 14 -14v-1236l889 1244q4 6 11 6q14 0 14 -14q0 -2 -3 -8l-435 -609l468 -654q2 -4 2 -8q0 -14 -14 -14q-7 0 -11 6l-462 647l-461 -647q-4 -6 -12 -6q-13 0 -13 14v1279q0 5 4 9.5t9 4.5z" />
    <glyph glyph-name="L" unicode="L" 
d="M300 1268q14 0 14 -14v-1266h900q14 0 14 -13q0 -14 -14 -14h-914q-13 0 -13 14v1279q0 5 4 9.5t9 4.5z" />
    <glyph glyph-name="M" unicode="M" horiz-adv-x="2379" 
d="M848 1268h1q9 0 12 -8l329 -767l329 767q4 8 12 8q10 0 13 -8l548 -1280q1 -1 1 -5q0 -14 -13 -14q-9 0 -13 9l-536 1249l-326 -761l205 -478q1 -2 1 -5q0 -14 -14 -14q-9 0 -13 9l-194 453l-194 -453q-4 -9 -13 -9q-14 0 -14 14q0 4 1 5l205 478l-326 761l-536 -1249
q-4 -9 -13 -9q-13 0 -13 14q0 3 1 5l548 1280q4 8 12 8z" />
    <glyph glyph-name="N" unicode="N" 
d="M1214 1268q14 0 14 -14v-1279q0 -14 -14 -14q-7 0 -11 6l-889 1244v-1236q0 -14 -14 -14q-13 0 -13 14v1279q0 14 13 14q8 0 12 -6l888 -1245v1237q0 5 4.5 9.5t9.5 4.5z" />
    <glyph glyph-name="O" unicode="O" horiz-adv-x="1878" 
d="M924 1268q137 0 261.5 -52t213.5 -139.5t141.5 -208.5t52.5 -254t-52.5 -254t-141.5 -208.5t-213.5 -139t-261.5 -51.5q-182 0 -329 88t-227.5 237t-80.5 328q0 134 47.5 254t130.5 208t202.5 140t256.5 52zM924 1240q-175 0 -315.5 -84t-217.5 -227t-77 -315t77 -315
t217.5 -226.5t315.5 -83.5q132 0 251 49.5t204.5 133t136 199t50.5 243.5q0 170 -85 314t-233 228t-324 84z" />
    <glyph glyph-name="P" unicode="P" 
d="M300 1268h457q180 0 304 -68q167 -91 167 -288q0 -195 -167 -288q-124 -69 -304 -69h-443v-580q0 -14 -14 -14q-13 0 -13 14v594q0 14 13 14h457q174 0 291 65q152 85 152 264t-152 264q-115 64 -291 64h-457q-13 0 -13 14t13 14z" />
    <glyph glyph-name="Q" unicode="Q" horiz-adv-x="1880" 
d="M924 1268q137 0 261.5 -51.5t213.5 -139t141.5 -208.5t52.5 -254q0 -155 -69 -290t-189 -227l238 -204q5 -3 5 -10q0 -14 -14 -14q-6 0 -9 3l-243 208q-172 -120 -388 -120q-137 0 -256.5 52t-202.5 140t-130.5 208t-47.5 254q0 179 80.5 328t227.5 237t329 88zM924 1241
q-175 0 -315.5 -84t-217.5 -227t-77 -315t77 -315t217.5 -227t315.5 -84q204 0 367 111l-376 321q-5 3 -5 11q0 14 14 14q5 0 9 -4l381 -326q117 87 184.5 217.5t67.5 281.5q0 170 -85 314t-233 228t-324 84z" />
    <glyph glyph-name="R" unicode="R" horiz-adv-x="1605" 
d="M300 1268h457q180 0 304 -68q167 -91 167 -288q0 -195 -167 -288q-80 -45 -200 -61l455 -580q4 -4 4 -8q0 -14 -14 -14q-7 0 -11 6l-465 592q-50 -4 -73 -4h-443v-580q0 -14 -14 -14q-13 0 -13 14v594q0 14 13 14h457q16 0 52 2l-519 661q-3 3 -3 8q0 14 13 14zM329 1241
l512 -653q126 14 207 60q152 85 152 264t-152 264q-117 65 -291 65h-428z" />
    <glyph glyph-name="S" unicode="S" horiz-adv-x="1724" 
d="M894 1268q169 0 301 -46t212 -124q5 -5 5 -10q0 -14 -14 -14q-5 0 -10 5q-75 73 -202.5 117t-291.5 44q-254 0 -411 -108q-68 -47 -104 -104.5t-36 -113.5q0 -65 44 -114q38 -43 119 -78q106 -45 374 -96q271 -52 380 -97q84 -35 129 -84q51 -56 51 -129q0 -81 -48 -148
t-131 -114q-163 -93 -383 -93q-350 0 -585 174q-6 4 -6 11q0 14 13 14q6 0 9 -3q227 -168 569 -168q214 0 370 89q164 93 164 238q0 63 -43 111q-39 43 -120 77q-47 20 -116 38.5t-118.5 29t-139.5 27.5q-276 52 -380 97q-84 36 -129 86q-50 55 -50 132q0 64 39.5 127
t112.5 113q167 114 426 114z" />
    <glyph glyph-name="T" unicode="T" horiz-adv-x="1697" 
d="M301 1268h1096q9 0 12.5 -6.5t0 -13.5t-12.5 -7h-534v-1266q0 -9 -7 -12.5t-14 0t-7 12.5v1266h-534q-9 0 -12.5 7t0 13.5t12.5 6.5z" />
    <glyph glyph-name="U" unicode="U" horiz-adv-x="1593" 
d="M300 1268q14 0 14 -14v-782q0 -132 64.5 -243.5t175.5 -176t243 -64.5t243 64.5t175.5 176t64.5 243.5v782q0 14 14 14t14 -14v-782q0 -212 -149.5 -361.5t-361.5 -149.5t-361 149.5t-149 361.5v782q0 5 4 9.5t9 4.5z" />
    <glyph glyph-name="V" unicode="V" horiz-adv-x="1695" 
d="M848 -39q-8 0 -12 8l-548 1279q-1 2 -1 6q0 14 13 14q9 0 13 -9l536 -1250l535 1250q4 9 13 9q14 0 14 -14q0 -4 -1 -6l-549 -1279q-3 -8 -12 -8h-1z" />
    <glyph glyph-name="W" unicode="W" horiz-adv-x="2336" 
d="M1397 1268q14 0 14 -14q0 -4 -1 -6l-227 -527l305 -712l536 1250q4 9 13 9q13 0 13 -14q0 -4 -1 -6l-548 -1279q-3 -8 -13 -8q-9 0 -12 8l-307 717l-308 -717q-3 -8 -12 -8q-10 0 -13 8l-548 1279q-1 1 -1 6t4 9.5t9 4.5q9 0 13 -9l536 -1250l305 712l-226 527q-2 2 -2 6
q0 5 4.5 9.5t9.5 4.5q9 0 13 -9l216 -503l215 503q4 9 13 9z" />
    <glyph glyph-name="X" unicode="X" horiz-adv-x="1605" 
d="M301 1268q7 0 10 -5l492 -626l492 626q3 5 10 5h1q13 0 13 -14q0 -5 -3 -8l-495 -631l495 -632q4 -4 4 -8q0 -14 -14 -14q-8 0 -11 5l-492 626l-492 -626q-3 -5 -10 -5q-14 0 -14 14q0 5 3 8l496 632l-496 631q-3 3 -3 8q0 14 13 14h1z" />
    <glyph glyph-name="Y" unicode="Y" horiz-adv-x="1697" 
d="M1397 1268h1q14 0 14 -14q0 -5 -4 -9l-545 -695v-575v-1q0 -13 -14 -13t-14 13v1v575l-545 695q-3 3 -3 9q0 14 14 14q7 0 11 -6l537 -685l537 685q4 6 11 6z" />
    <glyph glyph-name="Z" unicode="Z" 
d="M1214 1268q14 0 14 -14q0 -4 -2 -8l-899 -1257h887h1q13 0 13 -14t-13 -14h-1h-913q-14 0 -14 14q0 2 3 8l898 1257h-887h-1q-13 0 -13 14q0 13 13 13h1z" />
    <glyph glyph-name="bracketleft" unicode="[" horiz-adv-x="301" 
d="M288 1450h-274q-14 0 -14 -13v-1645q0 -14 14 -14h274q14 0 14 14t-14 14h-261v1617h261q14 0 14 14q0 13 -14 13z" />
    <glyph glyph-name="backslash" unicode="\" horiz-adv-x="665" 
d="M653 -131q14 0 14 14q0 5 -1 6l-640 1462q-3 8 -12 8q-14 0 -14 -14q0 -3 1 -5l640 -1462q4 -9 12 -9z" />
    <glyph glyph-name="bracketright" unicode="]" horiz-adv-x="301" 
d="M14 1450h274q14 0 14 -13v-1645q0 -14 -14 -14h-274q-14 0 -14 14t14 14h260v1617h-260q-14 0 -14 14q0 13 14 13z" />
    <glyph glyph-name="asciicircum" unicode="^" horiz-adv-x="757" 
d="M379 1890h1q4 0 6 -1l365 -183q8 -4 8 -12q0 -14 -14 -14q-2 0 -6 2l-359 179l-360 -179q-4 -2 -6 -2q-14 0 -14 14q0 8 8 12l366 183q1 1 5 1z" />
    <glyph glyph-name="underscore" unicode="_" horiz-adv-x="808" 
d="M-6 -13h822q14 0 14 -14q0 -13 -14 -13h-822h-1q-13 0 -13 13q0 14 13 14h1z" />
    <glyph glyph-name="grave" unicode="`" horiz-adv-x="393" 
d="M14 1890q-14 0 -14 -13q0 -9 8 -13l365 -183q2 -1 7 -1q14 0 14 14q0 8 -8 12l-366 183q-2 1 -6 1z" />
    <glyph glyph-name="a" unicode="a" horiz-adv-x="1695" 
d="M848 1268h1q9 0 12 -8l549 -1280q1 -2 1 -5q0 -14 -14 -14q-9 0 -13 9l-535 1249l-536 -1249q-4 -9 -13 -9q-13 0 -13 14q0 3 1 5l548 1280q4 8 12 8z" />
    <glyph glyph-name="b" unicode="b" horiz-adv-x="1511" 
d="M300 1267h428q187 0 294 -50q159 -74 159 -251q0 -178 -159 -259q-58 -30 -127 -44q98 -14 164 -49q167 -86 167 -294q0 -207 -166 -296q-115 -62 -303 -62h-457q-13 0 -13 13t13 13h457q180 0 290 59q154 82 154 273t-153 271q-107 56 -291 56h-29h-428q-13 0 -13 13
t13 13h428q174 0 283 56q144 74 144 237q0 161 -144 228q-101 47 -283 47h-428q-13 0 -13 13t13 13z" />
    <glyph glyph-name="c" unicode="c" horiz-adv-x="1695" 
d="M940 1268q138 0 258 -49t209 -138q4 -4 4 -10q0 -13 -14 -13q-6 0 -10 4q-85 85 -200 131.5t-247 46.5q-133 0 -249 -47.5t-199 -130.5t-130.5 -199t-47.5 -249q0 -177 81 -320t224.5 -224t320.5 -81q132 0 247 46.5t200 131.5q4 4 10 4q14 0 14 -13q0 -6 -4 -10
q-89 -89 -209 -138t-258 -49q-137 0 -258.5 50t-208 136.5t-136.5 208t-50 258.5q0 183 85 333t235 235.5t333 85.5z" />
    <glyph glyph-name="d" unicode="d" 
d="M300 1268h183q394 0 581 -187q164 -164 164 -467q0 -302 -164 -466q-187 -187 -581 -187h-183q-13 0 -13 14t13 14h183q384 0 562 178q155 155 155 447q0 293 -155 448q-178 178 -562 178h-183q-13 0 -13 14t13 14z" />
    <glyph glyph-name="e" unicode="e" 
d="M300 1268h914q14 0 14 -14t-14 -14h-914q-13 0 -13 14t13 14zM300 628h823q14 0 14 -14q0 -13 -14 -13h-823q-13 0 -13 13q0 14 13 14zM300 -11h914q14 0 14 -14t-14 -14h-914q-13 0 -13 14t13 14z" />
    <glyph glyph-name="f" unicode="f" 
d="M300 1268h914q14 0 14 -14t-14 -14h-914q-13 0 -13 14t13 14zM300 628h823q14 0 14 -14q0 -13 -14 -13h-809v-626q0 -14 -14 -14q-13 0 -13 14v639q0 14 13 14z" />
    <glyph glyph-name="g" unicode="g" horiz-adv-x="1695" 
d="M940 1268q138 0 258 -49t209 -138q4 -4 4 -10q0 -13 -14 -13q-6 0 -10 4q-85 85 -200 131.5t-247 46.5q-133 0 -249 -47.5t-199 -130.5t-130.5 -199t-47.5 -249q0 -177 81 -320t224.5 -224t320.5 -81q131 0 244.5 46t198.5 129v437h-626q-13 0 -13 13q0 14 13 14h640
q14 0 14 -14v-456q0 -6 -4 -10q-89 -89 -209 -138t-258 -49q-137 0 -258.5 50t-208 136.5t-136.5 208t-50 258.5q0 183 85 333t235 235.5t333 85.5z" />
    <glyph glyph-name="h" unicode="h" 
d="M300 1268q14 0 14 -14v-626h886v626q0 5 4.5 9.5t9.5 4.5q14 0 14 -14v-1279q0 -14 -14 -14t-14 14v626h-886v-626q0 -14 -14 -14q-13 0 -13 14v1279q0 5 4 9.5t9 4.5z" />
    <glyph glyph-name="i" unicode="i" horiz-adv-x="600" 
d="M287 1254q0 5 4 9.5t9 4.5q14 0 14 -14v-1279q0 -14 -14 -14q-5 0 -9 4.5t-4 9.5v1279z" />
    <glyph glyph-name="j" unicode="j" horiz-adv-x="1466" 
d="M1167 1267h1q12 0 12 -13v-822q0 -251 -165 -376q-124 -94 -304 -94q-181 0 -305 94q-78 58 -118 144q-1 1 -1 6q0 13 13 13q7 0 11 -8q40 -82 110 -135q117 -88 290 -88q172 0 289 88q155 116 155 356v822q0 13 12 13z" />
    <glyph glyph-name="k" unicode="k" horiz-adv-x="1546" 
d="M300 1268q14 0 14 -14v-1236l889 1244q4 6 11 6q14 0 14 -14q0 -2 -3 -8l-435 -609l468 -654q2 -4 2 -8q0 -14 -14 -14q-7 0 -11 6l-462 647l-461 -647q-4 -6 -12 -6q-13 0 -13 14v1279q0 5 4 9.5t9 4.5z" />
    <glyph glyph-name="l" unicode="l" 
d="M300 1268q14 0 14 -14v-1266h900q14 0 14 -13q0 -14 -14 -14h-914q-13 0 -13 14v1279q0 5 4 9.5t9 4.5z" />
    <glyph glyph-name="m" unicode="m" horiz-adv-x="2379" 
d="M848 1268h1q9 0 12 -8l329 -767l329 767q4 8 12 8q10 0 13 -8l548 -1280q1 -1 1 -5q0 -14 -13 -14q-9 0 -13 9l-536 1249l-326 -761l205 -478q1 -2 1 -5q0 -14 -14 -14q-9 0 -13 9l-194 453l-194 -453q-4 -9 -13 -9q-14 0 -14 14q0 4 1 5l205 478l-326 761l-536 -1249
q-4 -9 -13 -9q-13 0 -13 14q0 3 1 5l548 1280q4 8 12 8z" />
    <glyph glyph-name="n" unicode="n" 
d="M1214 1268q14 0 14 -14v-1279q0 -14 -14 -14q-7 0 -11 6l-889 1244v-1236q0 -14 -14 -14q-13 0 -13 14v1279q0 14 13 14q8 0 12 -6l888 -1245v1237q0 5 4.5 9.5t9.5 4.5z" />
    <glyph glyph-name="o" unicode="o" horiz-adv-x="1878" 
d="M924 1268q137 0 261.5 -52t213.5 -139.5t141.5 -208.5t52.5 -254t-52.5 -254t-141.5 -208.5t-213.5 -139t-261.5 -51.5q-182 0 -329 88t-227.5 237t-80.5 328q0 134 47.5 254t130.5 208t202.5 140t256.5 52zM924 1240q-175 0 -315.5 -84t-217.5 -227t-77 -315t77 -315
t217.5 -226.5t315.5 -83.5q132 0 251 49.5t204.5 133t136 199t50.5 243.5q0 170 -85 314t-233 228t-324 84z" />
    <glyph glyph-name="p" unicode="p" 
d="M300 1268h457q180 0 304 -68q167 -91 167 -288q0 -195 -167 -288q-124 -69 -304 -69h-443v-580q0 -14 -14 -14q-13 0 -13 14v594q0 14 13 14h457q174 0 291 65q152 85 152 264t-152 264q-115 64 -291 64h-457q-13 0 -13 14t13 14z" />
    <glyph glyph-name="q" unicode="q" horiz-adv-x="1880" 
d="M924 1268q137 0 261.5 -51.5t213.5 -139t141.5 -208.5t52.5 -254q0 -155 -69 -290t-189 -227l238 -204q5 -3 5 -10q0 -14 -14 -14q-6 0 -9 3l-243 208q-172 -120 -388 -120q-137 0 -256.5 52t-202.5 140t-130.5 208t-47.5 254q0 179 80.5 328t227.5 237t329 88zM924 1241
q-175 0 -315.5 -84t-217.5 -227t-77 -315t77 -315t217.5 -227t315.5 -84q204 0 367 111l-376 321q-5 3 -5 11q0 14 14 14q5 0 9 -4l381 -326q117 87 184.5 217.5t67.5 281.5q0 170 -85 314t-233 228t-324 84z" />
    <glyph glyph-name="r" unicode="r" horiz-adv-x="1605" 
d="M300 1268h457q180 0 304 -68q167 -91 167 -288q0 -195 -167 -288q-80 -45 -200 -61l455 -580q4 -4 4 -8q0 -14 -14 -14q-7 0 -11 6l-465 592q-50 -4 -73 -4h-443v-580q0 -14 -14 -14q-13 0 -13 14v594q0 14 13 14h457q16 0 52 2l-519 661q-3 3 -3 8q0 14 13 14zM329 1241
l512 -653q126 14 207 60q152 85 152 264t-152 264q-117 65 -291 65h-428z" />
    <glyph glyph-name="s" unicode="s" horiz-adv-x="1724" 
d="M894 1268q169 0 301 -46t212 -124q5 -5 5 -10q0 -14 -14 -14q-5 0 -10 5q-75 73 -202.5 117t-291.5 44q-254 0 -411 -108q-68 -47 -104 -104.5t-36 -113.5q0 -65 44 -114q38 -43 119 -78q106 -45 374 -96q271 -52 380 -97q84 -35 129 -84q51 -56 51 -129q0 -81 -48 -148
t-131 -114q-163 -93 -383 -93q-350 0 -585 174q-6 4 -6 11q0 14 13 14q6 0 9 -3q227 -168 569 -168q214 0 370 89q164 93 164 238q0 63 -43 111q-39 43 -120 77q-47 20 -116 38.5t-118.5 29t-139.5 27.5q-276 52 -380 97q-84 36 -129 86q-50 55 -50 132q0 64 39.5 127
t112.5 113q167 114 426 114z" />
    <glyph glyph-name="t" unicode="t" horiz-adv-x="1697" 
d="M301 1268h1096q9 0 12.5 -6.5t0 -13.5t-12.5 -7h-534v-1266q0 -9 -7 -12.5t-14 0t-7 12.5v1266h-534q-9 0 -12.5 7t0 13.5t12.5 6.5z" />
    <glyph glyph-name="u" unicode="u" horiz-adv-x="1593" 
d="M300 1268q14 0 14 -14v-782q0 -132 64.5 -243.5t175.5 -176t243 -64.5t243 64.5t175.5 176t64.5 243.5v782q0 14 14 14t14 -14v-782q0 -212 -149.5 -361.5t-361.5 -149.5t-361 149.5t-149 361.5v782q0 5 4 9.5t9 4.5z" />
    <glyph glyph-name="v" unicode="v" horiz-adv-x="1695" 
d="M848 -39q-8 0 -12 8l-548 1279q-1 2 -1 6q0 14 13 14q9 0 13 -9l536 -1250l535 1250q4 9 13 9q14 0 14 -14q0 -4 -1 -6l-549 -1279q-3 -8 -12 -8h-1z" />
    <glyph glyph-name="w" unicode="w" horiz-adv-x="2336" 
d="M1397 1268q14 0 14 -14q0 -4 -1 -6l-227 -527l305 -712l536 1250q4 9 13 9q13 0 13 -14q0 -4 -1 -6l-548 -1279q-3 -8 -13 -8q-9 0 -12 8l-307 717l-308 -717q-3 -8 -12 -8q-10 0 -13 8l-548 1279q-1 1 -1 6t4 9.5t9 4.5q9 0 13 -9l536 -1250l305 712l-226 527q-2 2 -2 6
q0 5 4.5 9.5t9.5 4.5q9 0 13 -9l216 -503l215 503q4 9 13 9z" />
    <glyph glyph-name="x" unicode="x" horiz-adv-x="1605" 
d="M301 1268q7 0 10 -5l492 -626l492 626q3 5 10 5h1q13 0 13 -14q0 -5 -3 -8l-495 -631l495 -632q4 -4 4 -8q0 -14 -14 -14q-8 0 -11 5l-492 626l-492 -626q-3 -5 -10 -5q-14 0 -14 14q0 5 3 8l496 632l-496 631q-3 3 -3 8q0 14 13 14h1z" />
    <glyph glyph-name="y" unicode="y" horiz-adv-x="1697" 
d="M1397 1268h1q14 0 14 -14q0 -5 -4 -9l-545 -695v-575v-1q0 -13 -14 -13t-14 13v1v575l-545 695q-3 3 -3 9q0 14 14 14q7 0 11 -6l537 -685l537 685q4 6 11 6z" />
    <glyph glyph-name="z" unicode="z" 
d="M1214 1268q14 0 14 -14q0 -4 -2 -8l-899 -1257h887h1q13 0 13 -14t-13 -14h-1h-913q-14 0 -14 14q0 2 3 8l898 1257h-887h-1q-13 0 -13 14q0 13 13 13h1z" />
    <glyph glyph-name="braceleft" unicode="{" horiz-adv-x="483" 
d="M470 1450h-91q-129 0 -171 -63q-26 -39 -26 -133v-457q-1 -93 -53 -135q-42 -34 -116 -34q-5 0 -9 -4.5t-4 -9.5q0 -13 13 -13q87 0 118 -21q51 -34 51 -148v-457q0 -94 26 -133q43 -64 171 -64h91h1q13 0 13 14t-13 14h-1h-91q-115 0 -149 51q-20 30 -20 118v457
q0 129 -63 171q-12 8 -38 16q25 12 38 22q62 50 63 156v0v457q0 88 20 118q34 51 149 51h91h1q13 0 13 14q0 13 -13 13h-1z" />
    <glyph glyph-name="bar" unicode="|" horiz-adv-x="26" 
d="M0 -201q0 -14 14 -14q13 0 13 14v1626q0 14 -13 14q-5 0 -9.5 -4.5t-4.5 -9.5v-1626z" />
    <glyph glyph-name="braceright" unicode="}" horiz-adv-x="483" 
d="M14 1450h91q130 0 172 -63q12 -18 18 -43.5t6.5 -41t0.5 -48.5v-457q1 -93 53 -135q42 -34 116 -34q5 0 9 -4.5t4 -9.5q0 -13 -13 -13q-87 0 -118 -21q-51 -34 -51 -148v-457q0 -33 -0.5 -48.5t-6.5 -41t-18 -43.5q-43 -64 -172 -64h-91q-14 0 -14 14t14 14h91
q115 0 149 51q20 30 20 118v457q0 128 64 171q13 9 37 16q-23 11 -37 22q-63 51 -64 156v0v457q0 88 -20 118q-34 51 -149 51h-91q-14 0 -14 14q0 13 14 13z" />
    <glyph glyph-name="asciitilde" unicode="~" horiz-adv-x="1183" 
d="M303 739q53 0 97 -9t82.5 -28.5t60.5 -34.5t58 -42q37 -28 56.5 -41.5t56 -32t77.5 -26.5t91 -8q85 0 191 70q24 16 46 33.5t33 27.5l10 10q4 4 10 4q13 0 13 -13q0 -6 -4 -10q-37 -37 -92 -74q-111 -75 -207 -75q-53 0 -97 9t-82.5 28.5t-60.5 34.5t-58 42t-56.5 41
t-56.5 32t-77 26t-91 8q-85 0 -191 -70q-24 -16 -46 -33.5t-32 -27.5l-11 -9q-4 -4 -9 -4q-14 0 -14 13q0 6 4 10q38 37 93 74q111 75 206 75z" />
    <glyph glyph-name="exclamdown" unicode="&#xa1;" horiz-adv-x="96" 
d="M33 1030q0 14 14 14t14 -14v-1300q0 -13 -14 -13q-5 0 -9.5 4t-4.5 9v1300zM98 1240q0 20 -14.5 34t-35.5 14t-34.5 -14t-13.5 -34q0 -21 13.5 -35t34.5 -14t35.5 14.5t14.5 34.5z" />
    <glyph glyph-name="cent" unicode="&#xa2;" horiz-adv-x="1417" 
d="M757 1268q14 0 14 -14v-149h6q210 0 350 -140q4 -4 4 -10q0 -14 -14 -14q-5 0 -9 4q-132 132 -331 132h-6v-925h6q199 0 331 132q4 4 10 4q13 0 13 -14q0 -6 -4 -10q-140 -140 -350 -140h-6v-149q0 -14 -14 -14q-13 0 -13 14v150q-197 12 -327 150.5t-130 338.5t130 339
t327 151v150q0 5 4 9.5t9 4.5zM744 1076q-187 -12 -308.5 -142t-121.5 -320t121.5 -319.5t308.5 -141.5v923z" />
    <glyph glyph-name="sterling" unicode="&#xa3;" horiz-adv-x="1697" 
d="M1032 1268q210 0 350 -140q4 -4 4 -10q0 -14 -14 -14q-6 0 -10 4q-132 132 -330 132q-199 0 -331 -132t-132 -331q0 -38 17 -240h629q14 0 14 -14t-14 -14h-627q5 -67 2 -126q-10 -222 -169 -394h976h1q13 0 13 -14t-13 -14h-1h-1005q-14 0 -14 14q0 5 4 9
q171 171 181 400q2 50 -3 125h-259h-1q-13 0 -13 14t13 14h1h258q-17 197 -17 240q0 209 140.5 350t349.5 141z" />
    <glyph glyph-name="yen" unicode="&#xa5;" horiz-adv-x="1697" 
d="M301 1268q7 0 11 -6l537 -685l537 685q4 6 11 6q14 0 14 -14q0 -6 -3 -9l-545 -695v-13h260h1q13 0 13 -14t-13 -14h-1h-260v-155h260h1q13 0 13 -14q0 -13 -13 -13h-1h-260v-352q0 -14 -14 -14t-14 14v352h-260q-14 0 -14 13q0 14 14 14h260v155h-260q-14 0 -14 14
t14 14h260v13l-545 695q-3 3 -3 9q0 14 14 14z" />
    <glyph glyph-name="section" unicode="&#xa7;" horiz-adv-x="845" 
d="M446 1271q124 0 221 -33.5t155 -91.5q4 -4 4 -10q0 -14 -13 -14q-6 0 -10 4q-54 53 -146 85t-211 32q-183 0 -297 -78q-49 -34 -75 -75t-26 -81q0 -46 31 -80q29 -32 86 -57q75 -32 271 -69q202 -38 278 -71q61 -25 95 -62q38 -41 38 -97q0 -117 -133 -194q62 -26 95 -62
q38 -41 38 -97q0 -119 -132 -193q-122 -69 -281 -69q-255 0 -428 128q-6 4 -6 11q0 13 14 13q4 0 8 -2q164 -122 412 -122q156 0 268 64q118 67 118 170q0 45 -31 79q-28 31 -86 55q-74 31 -272 69q-200 38 -277 71q-60 26 -95 64q-38 41 -38 98q0 52 34.5 102.5t98.5 88.5
q-60 26 -95 64q-38 41 -38 98q0 48 29 95t83 83q123 84 313 84zM187 834q-67 -35 -103 -83t-36 -95q0 -46 31 -80q29 -32 86 -57q75 -32 271 -69q166 -31 244 -58q140 68 140 181q0 45 -31 79q-28 31 -86 55q-74 31 -272 69q-172 32 -244 58z" />
    <glyph glyph-name="dieresis" unicode="&#xa8;" horiz-adv-x="546" 
d="M547 1785q0 -24 -17 -41t-42 -17q-24 0 -40.5 17t-16.5 41t16.5 41t40.5 17q25 0 42 -17t17 -41zM116 1785q0 -24 -17 -41t-42 -17q-24 0 -40.5 17t-16.5 41t16.5 41t40.5 17q25 0 42 -17t17 -41z" />
    <glyph glyph-name="guillemotleft" unicode="&#xab;" horiz-adv-x="933" 
d="M922 1085q14 0 14 -14q0 -4 -5 -9l-447 -448l447 -447q5 -5 5 -10q0 -13 -14 -13q-6 0 -10 4l-457 457q-4 4 -4 9q0 6 4 10l457 457q4 4 10 4zM471 1085q13 0 13 -14q0 -5 -4 -9l-447 -448l447 -447q5 -5 5 -10q0 -13 -14 -13q-6 0 -10 4l-457 457q-4 4 -4 9q0 6 4 10
l457 457q4 4 10 4z" />
    <glyph glyph-name="uni00AD" unicode="&#xad;" horiz-adv-x="849" 
d="M14 628h822h1q13 0 13 -14q0 -13 -13 -13h-1h-822q-14 0 -14 13q0 14 14 14z" />
    <glyph glyph-name="macron" unicode="&#xaf;" horiz-adv-x="1202" 
d="M301 1789h602h1q13 0 13 -14t-13 -14h-1h-602h-1q-13 0 -13 14t13 14h1z" />
    <glyph glyph-name="degree" unicode="&#xb0;" horiz-adv-x="327" 
d="M161 1950q70 0 119 -48.5t49 -116.5t-49 -116.5t-119 -48.5q-69 0 -115 48.5t-46 116.5t46 116.5t115 48.5zM161 1922q-59 0 -96.5 -39.5t-37.5 -97.5t37.5 -97.5t96.5 -39.5t100 40t41 97t-41 97t-100 40z" />
    <glyph glyph-name="plusminus" unicode="&#xb1;" horiz-adv-x="849" 
d="M14 169h822h1q13 0 13 -13q0 -14 -13 -14h-1h-822q-14 0 -14 14q0 13 14 13zM439 686h397h1q13 0 13 -14q0 -13 -13 -13h-1h-397v-398q0 -14 -14 -14q-13 0 -13 14v398h-398q-14 0 -14 13q0 14 14 14h398v398q0 14 13 14q14 0 14 -14v-398z" />
    <glyph glyph-name="acute" unicode="&#xb4;" horiz-adv-x="393" 
d="M380 1890q14 0 14 -13q0 -9 -8 -13l-366 -183q-2 -1 -6 -1q-14 0 -14 14q0 8 8 12l366 183q2 1 6 1z" />
    <glyph glyph-name="cedilla" unicode="&#xb8;" horiz-adv-x="286" 
d="M243 -15q14 0 14 -14q0 -3 -2 -7l-111 -170q62 -8 103 -54.5t41 -108.5q0 -68 -49 -116t-119 -48t-116 48q-4 4 -4 10q0 13 14 13q6 0 10 -4q38 -40 96 -40q59 0 100 40t41 97t-41 97.5t-100 40.5h-1h-1v0q-12 2 -12 13q0 6 4 10l122 187q4 6 11 6z" />
    <glyph glyph-name="ordmasculine" unicode="&#xba;" horiz-adv-x="901" 
d="M448 1950q70 0 119 -48.5t49 -116.5t-49 -116.5t-119 -48.5q-69 0 -115 48.5t-46 116.5t46 116.5t115 48.5zM448 1922q-59 0 -96.5 -39.5t-37.5 -97.5t37.5 -97.5t96.5 -39.5t100 40t41 97t-41 97t-100 40z" />
    <glyph glyph-name="guillemotright" unicode="&#xbb;" horiz-adv-x="933" 
d="M14 1085q6 0 10 -4l457 -457q4 -4 4 -10q0 -5 -4 -9l-457 -457q-4 -4 -10 -4q-14 0 -14 13q0 6 4 10l447 447l-447 448q-4 4 -4 9q0 14 14 14zM465 1085q6 0 10 -4l457 -457q4 -4 4 -10q0 -5 -4 -9l-457 -457q-4 -4 -10 -4q-14 0 -14 13q0 6 4 10l448 447l-448 448
q-4 4 -4 9q0 14 14 14z" />
    <glyph glyph-name="questiondown" unicode="&#xbf;" horiz-adv-x="729" 
d="M517 1311q0 20 14.5 34t35.5 14t34.5 -14t13.5 -34q0 -21 -13.5 -35t-34.5 -14t-35.5 14.5t-14.5 34.5zM379 -283q-229 0 -323 153q-56 91 -56 226q0 64 16 119.5t54 113t66 90.5t87 98q13 15 20 22q47 51 76.5 86t71 92.5t68 110t51.5 125t38 150.5q2 12 14 12
q14 0 14 -14q0 -1 -0.5 -1t-0.5 -1q-16 -99 -48 -185.5t-79.5 -159.5t-86 -121t-97.5 -112q-111 -121 -146 -169q-91 -125 -91 -256q0 -124 53 -212q85 -140 299 -140v0q85 -1 171.5 32.5t156.5 97.5q3 3 9 3q14 0 14 -13q0 -7 -4 -10q-74 -67 -165.5 -102.5t-181.5 -34.5z
" />
    <glyph glyph-name="Agrave" unicode="&#xc0;" horiz-adv-x="1695" 
d="M848 1268h1q9 0 12 -8l549 -1280q1 -2 1 -5q0 -14 -14 -14q-9 0 -13 9l-535 1249l-536 -1249q-4 -9 -13 -9q-13 0 -13 14q0 3 1 5l548 1280q4 8 12 8zM714 1890q-14 0 -14 -13q0 -9 8 -13l365 -183q2 -1 7 -1q14 0 14 14q0 8 -8 12l-366 183q-2 1 -6 1z" />
    <glyph glyph-name="Aacute" unicode="&#xc1;" horiz-adv-x="1695" 
d="M848 1268h1q9 0 12 -8l549 -1280q1 -2 1 -5q0 -14 -14 -14q-9 0 -13 9l-535 1249l-536 -1249q-4 -9 -13 -9q-13 0 -13 14q0 3 1 5l548 1280q4 8 12 8zM1041 1890q14 0 14 -13q0 -9 -8 -13l-366 -183q-2 -1 -6 -1q-14 0 -14 14q0 8 8 12l366 183q2 1 6 1z" />
    <glyph glyph-name="Acircumflex" unicode="&#xc2;" horiz-adv-x="1695" 
d="M848 1268h1q9 0 12 -8l549 -1280q1 -2 1 -5q0 -14 -14 -14q-9 0 -13 9l-535 1249l-536 -1249q-4 -9 -13 -9q-13 0 -13 14q0 3 1 5l548 1280q4 8 12 8zM835 1890h1q4 0 6 -1l365 -183q8 -4 8 -12q0 -14 -14 -14q-2 0 -6 2l-359 179l-360 -179q-4 -2 -6 -2q-14 0 -14 14
q0 8 8 12l365 183q1 1 6 1z" />
    <glyph glyph-name="Atilde" unicode="&#xc3;" horiz-adv-x="1695" 
d="M848 1268h1q9 0 12 -8l549 -1280q1 -2 1 -5q0 -14 -14 -14q-9 0 -13 9l-535 1249l-536 -1249q-4 -9 -13 -9q-13 0 -13 14q0 3 1 5l548 1280q4 8 12 8zM659 1869q44 0 83 -12.5t58 -24.5t50 -36t47.5 -34.5t51 -21.5t75.5 -11q54 0 118 43q15 10 28.5 21t19.5 17l7 6
q4 4 10 4q13 0 13 -14q0 -5 -4 -9q-24 -24 -59 -48q-70 -48 -133 -48q-44 0 -83 12.5t-58 24.5t-50 36t-47.5 34.5t-51 21.5t-75.5 11q-55 0 -119 -43q-15 -10 -28.5 -21t-19.5 -17l-7 -6q-4 -4 -9 -4q-14 0 -14 14q0 5 4 9q24 24 59 48q70 48 134 48z" />
    <glyph glyph-name="Adieresis" unicode="&#xc4;" horiz-adv-x="1695" 
d="M848 1268h1q9 0 12 -8l549 -1280q1 -2 1 -5q0 -14 -14 -14q-9 0 -13 9l-535 1249l-536 -1249q-4 -9 -13 -9q-13 0 -13 14q0 3 1 5l548 1280q4 8 12 8zM1084 1785q0 -24 -17.5 -41t-42.5 -17q-24 0 -40.5 17t-16.5 41t16.5 41t40.5 17q25 0 42.5 -17t17.5 -41zM652 1785
q0 -24 -17 -41t-42 -17q-24 0 -40.5 17t-16.5 41t16.5 41t40.5 17q25 0 42 -17t17 -41z" />
    <glyph glyph-name="Aring" unicode="&#xc5;" horiz-adv-x="1695" 
d="M848 1268h1q9 0 12 -8l549 -1280q1 -2 1 -5q0 -14 -14 -14q-9 0 -13 9l-535 1249l-536 -1249q-4 -9 -13 -9q-13 0 -13 14q0 3 1 5l548 1280q4 8 12 8zM842 1950q70 0 119 -48.5t49 -116.5t-49 -116.5t-119 -48.5q-69 0 -115 48.5t-46 116.5t46 116.5t115 48.5zM842 1922
q-59 0 -96.5 -39.5t-37.5 -97.5t37.5 -97.5t96.5 -39.5t100 40t41 97t-41 97t-100 40z" />
    <glyph glyph-name="AE" unicode="&#xc6;" horiz-adv-x="2611" 
d="M311 -34q-3 -4 -7.5 -5t-8.5 1t-6.5 5.5t-2 8t3.5 8.5l1095 1277q3 7 12 7v0h914q9 0 12.5 -7t0 -14t-12.5 -7h-900v-612h808q9 0 12.5 -7t0 -13.5t-12.5 -6.5h-808v-612h900q9 0 12.5 -7t0 -14t-12.5 -7h-913h-1h-1q-13 0 -13 17v1239z" />
    <glyph glyph-name="Ccedilla" unicode="&#xc7;" horiz-adv-x="1695" 
d="M940 1268q138 0 258 -49t209 -138q4 -4 4 -10q0 -13 -14 -13q-6 0 -10 4q-85 85 -200 131.5t-247 46.5q-133 0 -249 -47.5t-199 -130.5t-130.5 -199t-47.5 -249q0 -177 81 -320t224.5 -224t320.5 -81q132 0 247 46.5t200 131.5q4 4 10 4q14 0 14 -13q0 -6 -4 -10
q-87 -87 -203 -135.5t-249 -51.5l-110 -167q62 -8 103.5 -54.5t41.5 -108.5q0 -68 -49.5 -116t-119.5 -48t-116 48q-4 4 -4 10q0 13 14 13q6 0 10 -4q38 -40 96 -40q59 0 100 40t41 97t-41 97.5t-100 40.5v0h-1h-1v0q-12 2 -12 13q0 6 4 10l111 169q-134 3 -252 54.5
t-202 137.5t-132.5 206t-48.5 255q0 183 85 333t235 235.5t333 85.5z" />
    <glyph glyph-name="Egrave" unicode="&#xc8;" 
d="M300 1268h914q14 0 14 -14t-14 -14h-914q-13 0 -13 14t13 14zM300 628h823q14 0 14 -14q0 -13 -14 -13h-823q-13 0 -13 13q0 14 13 14zM300 -11h914q14 0 14 -14t-14 -14h-914q-13 0 -13 14t13 14zM565 1890q-14 0 -14 -13q0 -9 8 -13l366 -183q2 -1 6 -1q14 0 14 14
q0 8 -8 12l-366 183q-2 1 -6 1z" />
    <glyph glyph-name="Eacute" unicode="&#xc9;" 
d="M300 1268h914q14 0 14 -14t-14 -14h-914q-13 0 -13 14t13 14zM300 628h823q14 0 14 -14q0 -13 -14 -13h-823q-13 0 -13 13q0 14 13 14zM300 -11h914q14 0 14 -14t-14 -14h-914q-13 0 -13 14t13 14zM931 1890q14 0 14 -13q0 -9 -8 -13l-365 -183q-2 -1 -7 -1q-14 0 -14 14
q0 8 8 12l366 183q2 1 6 1z" />
    <glyph glyph-name="Ecircumflex" unicode="&#xca;" 
d="M300 1268h914q14 0 14 -14t-14 -14h-914q-13 0 -13 14t13 14zM300 628h823q14 0 14 -14q0 -13 -14 -13h-823q-13 0 -13 13q0 14 13 14zM300 -11h914q14 0 14 -14t-14 -14h-914q-13 0 -13 14t13 14zM806 1890h1q4 0 6 -1l366 -183q7 -4 7 -12q0 -14 -13 -14q-3 0 -7 2
l-359 179l-359 -179q-4 -2 -7 -2q-14 0 -14 14q0 8 8 12l366 183q1 1 5 1z" />
    <glyph glyph-name="Edieresis" unicode="&#xcb;" 
d="M300 1268h914q14 0 14 -14t-14 -14h-914q-13 0 -13 14t13 14zM300 628h823q14 0 14 -14q0 -13 -14 -13h-823q-13 0 -13 13q0 14 13 14zM300 -11h914q14 0 14 -14t-14 -14h-914q-13 0 -13 14t13 14zM1059 1785q0 -24 -17.5 -41t-42.5 -17q-24 0 -40 17t-16 41t16 41t40 17
q25 0 42.5 -17t17.5 -41zM628 1785q0 -24 -17.5 -41t-42.5 -17q-24 0 -40 17t-16 41t16 41t40 17q25 0 42.5 -17t17.5 -41z" />
    <glyph glyph-name="Igrave" unicode="&#xcc;" horiz-adv-x="600" 
d="M151 1890q-14 0 -14 -13q0 -9 8 -13l365 -183q2 -1 7 -1q13 0 13 14q0 8 -8 12l-365 183q-2 1 -6 1zM287 1254q0 5 4 9.5t9 4.5q14 0 14 -14v-1279q0 -14 -14 -14q-5 0 -9 4.5t-4 9.5v1279z" />
    <glyph glyph-name="Iacute" unicode="&#xcd;" horiz-adv-x="600" 
d="M478 1890q14 0 14 -13q0 -9 -8 -13l-366 -183q-2 -1 -6 -1q-14 0 -14 14q0 8 8 12l365 183q2 1 7 1zM287 1254q0 5 4 9.5t9 4.5q14 0 14 -14v-1279q0 -14 -14 -14q-5 0 -9 4.5t-4 9.5v1279z" />
    <glyph glyph-name="Icircumflex" unicode="&#xce;" horiz-adv-x="600" 
d="M309 1890q4 0 6 -1l366 -183q8 -4 8 -12q0 -14 -14 -14q-2 0 -6 2l-360 179l-359 -179q-4 -2 -7 -2q-13 0 -13 14q0 8 8 12l365 183q1 1 6 1zM287 1254q0 5 4 9.5t9 4.5q14 0 14 -14v-1279q0 -14 -14 -14q-5 0 -9 4.5t-4 9.5v1279z" />
    <glyph glyph-name="Idieresis" unicode="&#xcf;" horiz-adv-x="600" 
d="M575 1785q0 -24 -17.5 -41t-42.5 -17q-24 0 -40.5 17t-16.5 41t16.5 41t40.5 17q25 0 42.5 -17t17.5 -41zM144 1785q0 -24 -17.5 -41t-42.5 -17q-24 0 -40.5 17t-16.5 41t16.5 41t40.5 17q25 0 42.5 -17t17.5 -41zM287 1254q0 5 4 9.5t9 4.5q14 0 14 -14v-1279
q0 -14 -14 -14q-5 0 -9 4.5t-4 9.5v1279z" />
    <glyph glyph-name="Eth" unicode="&#xd0;" 
d="M483 1240h-169v-612h480h1q13 0 13 -14q0 -13 -13 -13h-1h-480v-612h169q384 0 562 178q155 155 155 447q0 293 -155 448q-178 178 -562 178zM300 1268h183q394 0 581 -187q164 -164 164 -467q0 -302 -164 -466q-187 -187 -581 -187h-183q-13 0 -13 14v626h-315
q-14 0 -14 13q0 14 14 14h315v626q0 14 13 14z" />
    <glyph glyph-name="Ntilde" unicode="&#xd1;" 
d="M568 1869q44 0 83 -12.5t58 -24.5t50 -36q31 -23 48 -34t51.5 -22t75.5 -11q53 0 118 43q15 10 28.5 21t19.5 17l7 6q4 4 10 4q13 0 13 -14q0 -5 -4 -9q-24 -24 -59 -48q-70 -48 -133 -48q-44 0 -83 12.5t-58 24.5t-50 36q-31 23 -48 34t-51.5 22t-75.5 11
q-54 0 -118 -43q-15 -10 -28.5 -21t-19.5 -17l-7 -6q-4 -4 -9 -4q-14 0 -14 14q0 5 4 9q24 24 59 48q70 48 133 48zM1214 1268q14 0 14 -14v-1279q0 -14 -14 -14q-7 0 -11 6l-889 1244v-1236q0 -14 -14 -14q-13 0 -13 14v1279q0 14 13 14q8 0 12 -6l888 -1245v1237
q0 5 4.5 9.5t9.5 4.5z" />
    <glyph glyph-name="Ograve" unicode="&#xd2;" horiz-adv-x="1878" 
d="M776 1890q-14 0 -14 -13q0 -9 8 -13l365 -183q2 -1 7 -1q13 0 13 14q0 8 -8 12l-365 183q-2 1 -6 1zM924 1268q137 0 261.5 -52t213.5 -139.5t141.5 -208.5t52.5 -254t-52.5 -254t-141.5 -208.5t-213.5 -139t-261.5 -51.5q-182 0 -329 88t-227.5 237t-80.5 328
q0 134 47.5 254t130.5 208t202.5 140t256.5 52zM924 1240q-175 0 -315.5 -84t-217.5 -227t-77 -315t77 -315t217.5 -226.5t315.5 -83.5q132 0 251 49.5t204.5 133t136 199t50.5 243.5q0 170 -85 314t-233 228t-324 84z" />
    <glyph glyph-name="Oacute" unicode="&#xd3;" horiz-adv-x="1878" 
d="M1103 1890q13 0 13 -13q0 -9 -7 -13l-366 -183q-2 -1 -6 -1q-14 0 -14 14q0 8 8 12l365 183q2 1 7 1zM924 1268q137 0 261.5 -52t213.5 -139.5t141.5 -208.5t52.5 -254t-52.5 -254t-141.5 -208.5t-213.5 -139t-261.5 -51.5q-182 0 -329 88t-227.5 237t-80.5 328
q0 134 47.5 254t130.5 208t202.5 140t256.5 52zM924 1240q-175 0 -315.5 -84t-217.5 -227t-77 -315t77 -315t217.5 -226.5t315.5 -83.5q132 0 251 49.5t204.5 133t136 199t50.5 243.5q0 170 -85 314t-233 228t-324 84z" />
    <glyph glyph-name="Ocircumflex" unicode="&#xd4;" horiz-adv-x="1878" 
d="M925 1890h1q4 0 6 -1l365 -183q8 -4 8 -12q0 -14 -14 -14q-2 0 -6 2l-359 179l-360 -179q-4 -2 -6 -2q-14 0 -14 14q0 8 8 12l366 183q1 1 5 1zM924 1268q137 0 261.5 -52t213.5 -139.5t141.5 -208.5t52.5 -254t-52.5 -254t-141.5 -208.5t-213.5 -139t-261.5 -51.5
q-182 0 -329 88t-227.5 237t-80.5 328q0 134 47.5 254t130.5 208t202.5 140t256.5 52zM924 1240q-175 0 -315.5 -84t-217.5 -227t-77 -315t77 -315t217.5 -226.5t315.5 -83.5q132 0 251 49.5t204.5 133t136 199t50.5 243.5q0 170 -85 314t-233 228t-324 84z" />
    <glyph glyph-name="Otilde" unicode="&#xd5;" horiz-adv-x="1878" 
d="M769 1869q44 0 83 -12.5t58 -24.5t50 -36q31 -23 48 -34t51.5 -22t75.5 -11q53 0 118 43q15 10 28.5 21t20.5 17l6 6q4 4 9 4q14 0 14 -14q0 -5 -4 -9q-24 -24 -59 -48q-70 -48 -133 -48q-44 0 -83 12.5t-58 24.5t-50 36q-31 23 -48 34t-51.5 22t-75.5 11q-53 0 -118 -43
q-15 -10 -28.5 -21t-20.5 -17l-6 -6q-4 -4 -10 -4q-13 0 -13 14q0 5 4 9q24 24 59 48q70 48 133 48zM924 1268q137 0 261.5 -52t213.5 -139.5t141.5 -208.5t52.5 -254t-52.5 -254t-141.5 -208.5t-213.5 -139t-261.5 -51.5q-182 0 -329 88t-227.5 237t-80.5 328
q0 134 47.5 254t130.5 208t202.5 140t256.5 52zM924 1240q-175 0 -315.5 -84t-217.5 -227t-77 -315t77 -315t217.5 -226.5t315.5 -83.5q132 0 251 49.5t204.5 133t136 199t50.5 243.5q0 170 -85 314t-233 228t-324 84z" />
    <glyph glyph-name="Odieresis" unicode="&#xd6;" horiz-adv-x="1878" 
d="M1217 1785q0 -24 -17.5 -41t-42.5 -17q-24 0 -40.5 17t-16.5 41t16.5 41t40.5 17q25 0 42.5 -17t17.5 -41zM786 1785q0 -24 -17.5 -41t-42.5 -17q-24 0 -40.5 17t-16.5 41t16.5 41t40.5 17q25 0 42.5 -17t17.5 -41zM924 1268q137 0 261.5 -52t213.5 -139.5t141.5 -208.5
t52.5 -254t-52.5 -254t-141.5 -208.5t-213.5 -139t-261.5 -51.5q-182 0 -329 88t-227.5 237t-80.5 328q0 134 47.5 254t130.5 208t202.5 140t256.5 52zM924 1240q-175 0 -315.5 -84t-217.5 -227t-77 -315t77 -315t217.5 -226.5t315.5 -83.5q132 0 251 49.5t204.5 133
t136 199t50.5 243.5q0 170 -85 314t-233 228t-324 84z" />
    <glyph glyph-name="multiply" unicode="&#xd7;" horiz-adv-x="1181" 
d="M591 634l281 281h1q9 9 19 0t0 -19v-1l-281 -281l281 -281q10 -9 0 -19t-19 0h-1l-281 281l-281 -281q-10 -10 -19 0t0 19l281 281l-281 281v1q-9 10 0 19t19 0z" />
    <glyph glyph-name="Oslash" unicode="&#xd8;" horiz-adv-x="1878" 
d="M470 188l888 889q-182 163 -434 163q-175 0 -315.5 -84t-217.5 -227t-77 -315q0 -248 156 -426zM488 168q83 -85 194.5 -132t241.5 -47q132 0 251 49.5t204.5 133t136 199t50.5 243.5q0 127 -49.5 242t-138.5 201zM469 149l-122 -122q-9 -9 -19 0t0 19l123 123
q-79 89 -121.5 203t-42.5 242q0 134 47.5 254t130.5 208t202.5 140t256.5 52q130 0 246.5 -45t207.5 -127l100 100q10 10 19 0t0 -19l-99 -100q92 -90 143.5 -209.5t51.5 -253.5q0 -133 -52.5 -254t-141.5 -208.5t-213.5 -139t-261.5 -51.5q-135 0 -251.5 49.5t-203.5 138.5
z" />
    <glyph glyph-name="Ugrave" unicode="&#xd9;" horiz-adv-x="1593" 
d="M639 1890q-14 0 -14 -13q0 -9 8 -13l365 -183q2 -1 7 -1q14 0 14 14q0 8 -8 12l-366 183q-2 1 -6 1zM300 1268q14 0 14 -14v-782q0 -132 64.5 -243.5t175.5 -176t243 -64.5t243 64.5t175.5 176t64.5 243.5v782q0 14 14 14t14 -14v-782q0 -212 -149.5 -361.5
t-361.5 -149.5t-361 149.5t-149 361.5v782q0 5 4 9.5t9 4.5z" />
    <glyph glyph-name="Uacute" unicode="&#xda;" horiz-adv-x="1593" 
d="M1005 1890q14 0 14 -13q0 -9 -8 -13l-366 -183q-2 -1 -6 -1q-14 0 -14 14q0 8 8 12l366 183q2 1 6 1zM300 1268q14 0 14 -14v-782q0 -132 64.5 -243.5t175.5 -176t243 -64.5t243 64.5t175.5 176t64.5 243.5v782q0 14 14 14t14 -14v-782q0 -212 -149.5 -361.5
t-361.5 -149.5t-361 149.5t-149 361.5v782q0 5 4 9.5t9 4.5z" />
    <glyph glyph-name="Ucircumflex" unicode="&#xdb;" horiz-adv-x="1593" 
d="M798 1890h1q4 0 6 -1l365 -183q8 -4 8 -12q0 -14 -14 -14q-2 0 -6 2l-359 179l-360 -179q-4 -2 -6 -2q-14 0 -14 14q0 8 8 12l366 183q1 1 5 1zM300 1268q14 0 14 -14v-782q0 -132 64.5 -243.5t175.5 -176t243 -64.5t243 64.5t175.5 176t64.5 243.5v782q0 14 14 14
t14 -14v-782q0 -212 -149.5 -361.5t-361.5 -149.5t-361 149.5t-149 361.5v782q0 5 4 9.5t9 4.5z" />
    <glyph glyph-name="Udieresis" unicode="&#xdc;" horiz-adv-x="1593" 
d="M1088 1785q0 -24 -17.5 -41t-42.5 -17q-24 0 -40.5 17t-16.5 41t16.5 41t40.5 17q25 0 42.5 -17t17.5 -41zM657 1785q0 -24 -17.5 -41t-42.5 -17q-24 0 -40.5 17t-16.5 41t16.5 41t40.5 17q25 0 42.5 -17t17.5 -41zM300 1268q14 0 14 -14v-782q0 -132 64.5 -243.5
t175.5 -176t243 -64.5t243 64.5t175.5 176t64.5 243.5v782q0 14 14 14t14 -14v-782q0 -212 -149.5 -361.5t-361.5 -149.5t-361 149.5t-149 361.5v782q0 5 4 9.5t9 4.5z" />
    <glyph glyph-name="Yacute" unicode="&#xdd;" horiz-adv-x="1697" 
d="M1052 1890q14 0 14 -13q0 -9 -8 -13l-365 -183q-2 -1 -7 -1q-14 0 -14 14q0 8 8 12l366 183q2 1 6 1zM1397 1268h1q14 0 14 -14q0 -5 -4 -9l-545 -695v-575v-1q0 -13 -14 -13t-14 13v1v575l-545 695q-3 3 -3 9q0 14 14 14q7 0 11 -6l537 -685l537 685q4 6 11 6z" />
    <glyph glyph-name="Thorn" unicode="&#xde;" 
d="M301 1268q13 0 13 -14v-283h444q179 0 303 -68q167 -91 167 -288q0 -195 -167 -288q-124 -69 -303 -69h-444v-283q0 -14 -13 -14q-14 0 -14 14v296v683v3v3v294q0 5 4.5 9.5t9.5 4.5zM314 943v-657h444q173 0 290 65q153 85 153 264t-153 264q-115 64 -290 64h-444z" />
    <glyph glyph-name="germandbls" unicode="&#xdf;" horiz-adv-x="1527" 
d="M666 1268v0q169 -2 269 -60q115 -67 115 -201q0 -65 -24.5 -109.5t-66.5 -85.5q-54 -51 -59 -58q-25 -32 -25 -60q1 -38 53 -76q19 -14 65 -39.5t60 -34.5q85 -52 129 -109q60 -78 60 -185q0 -181 -132 -276q-110 -79 -275 -79q-173 0 -277 153q-2 4 -2 8q0 14 13 14
q8 0 12 -6q96 -141 254 -141t259 73q121 87 121 254q0 96 -54 169q-37 50 -122 101q-15 9 -42.5 24.5t-47.5 27.5t-36 24q-64 46 -65 98q0 42 30 77q11 12 34 34.5t28 26.5q40 38 61.5 77t21.5 98q0 116 -102 177q-93 55 -255 57q-165 0 -258 -93q-94 -94 -94 -259v-914
q0 -14 -14 -14q-13 0 -13 14v914q0 177 101 278t278 101z" />
    <glyph glyph-name="agrave" unicode="&#xe0;" horiz-adv-x="1695" 
d="M848 1268h1q9 0 12 -8l549 -1280q1 -2 1 -5q0 -14 -14 -14q-9 0 -13 9l-535 1249l-536 -1249q-4 -9 -13 -9q-13 0 -13 14q0 3 1 5l548 1280q4 8 12 8zM714 1890q-14 0 -14 -13q0 -9 8 -13l365 -183q2 -1 7 -1q14 0 14 14q0 8 -8 12l-366 183q-2 1 -6 1z" />
    <glyph glyph-name="aacute" unicode="&#xe1;" horiz-adv-x="1695" 
d="M848 1268h1q9 0 12 -8l549 -1280q1 -2 1 -5q0 -14 -14 -14q-9 0 -13 9l-535 1249l-536 -1249q-4 -9 -13 -9q-13 0 -13 14q0 3 1 5l548 1280q4 8 12 8zM1041 1890q14 0 14 -13q0 -9 -8 -13l-366 -183q-2 -1 -6 -1q-14 0 -14 14q0 8 8 12l366 183q2 1 6 1z" />
    <glyph glyph-name="acircumflex" unicode="&#xe2;" horiz-adv-x="1695" 
d="M848 1268h1q9 0 12 -8l549 -1280q1 -2 1 -5q0 -14 -14 -14q-9 0 -13 9l-535 1249l-536 -1249q-4 -9 -13 -9q-13 0 -13 14q0 3 1 5l548 1280q4 8 12 8zM835 1890h1q4 0 6 -1l365 -183q8 -4 8 -12q0 -14 -14 -14q-2 0 -6 2l-359 179l-360 -179q-4 -2 -6 -2q-14 0 -14 14
q0 8 8 12l365 183q1 1 6 1z" />
    <glyph glyph-name="atilde" unicode="&#xe3;" horiz-adv-x="1695" 
d="M848 1268h1q9 0 12 -8l549 -1280q1 -2 1 -5q0 -14 -14 -14q-9 0 -13 9l-535 1249l-536 -1249q-4 -9 -13 -9q-13 0 -13 14q0 3 1 5l548 1280q4 8 12 8zM659 1869q44 0 83 -12.5t58 -24.5t50 -36t47.5 -34.5t51 -21.5t75.5 -11q54 0 118 43q15 10 28.5 21t19.5 17l7 6
q4 4 10 4q13 0 13 -14q0 -5 -4 -9q-24 -24 -59 -48q-70 -48 -133 -48q-44 0 -83 12.5t-58 24.5t-50 36t-47.5 34.5t-51 21.5t-75.5 11q-55 0 -119 -43q-15 -10 -28.5 -21t-19.5 -17l-7 -6q-4 -4 -9 -4q-14 0 -14 14q0 5 4 9q24 24 59 48q70 48 134 48z" />
    <glyph glyph-name="adieresis" unicode="&#xe4;" horiz-adv-x="1695" 
d="M848 1268h1q9 0 12 -8l549 -1280q1 -2 1 -5q0 -14 -14 -14q-9 0 -13 9l-535 1249l-536 -1249q-4 -9 -13 -9q-13 0 -13 14q0 3 1 5l548 1280q4 8 12 8zM1084 1785q0 -24 -17.5 -41t-42.5 -17q-24 0 -40.5 17t-16.5 41t16.5 41t40.5 17q25 0 42.5 -17t17.5 -41zM652 1785
q0 -24 -17 -41t-42 -17q-24 0 -40.5 17t-16.5 41t16.5 41t40.5 17q25 0 42 -17t17 -41z" />
    <glyph glyph-name="aring" unicode="&#xe5;" horiz-adv-x="1695" 
d="M848 1268h1q9 0 12 -8l549 -1280q1 -2 1 -5q0 -14 -14 -14q-9 0 -13 9l-535 1249l-536 -1249q-4 -9 -13 -9q-13 0 -13 14q0 3 1 5l548 1280q4 8 12 8zM842 1950q70 0 119 -48.5t49 -116.5t-49 -116.5t-119 -48.5q-69 0 -115 48.5t-46 116.5t46 116.5t115 48.5zM842 1922
q-59 0 -96.5 -39.5t-37.5 -97.5t37.5 -97.5t96.5 -39.5t100 40t41 97t-41 97t-100 40z" />
    <glyph glyph-name="ae" unicode="&#xe6;" horiz-adv-x="2611" 
d="M311 -34q-3 -4 -7.5 -5t-8.5 1t-6.5 5.5t-2 8t3.5 8.5l1095 1277q3 7 12 7v0h914q9 0 12.5 -7t0 -14t-12.5 -7h-900v-612h808q9 0 12.5 -7t0 -13.5t-12.5 -6.5h-808v-612h900q9 0 12.5 -7t0 -14t-12.5 -7h-913h-1h-1q-13 0 -13 17v1239z" />
    <glyph glyph-name="ccedilla" unicode="&#xe7;" horiz-adv-x="1695" 
d="M940 1268q138 0 258 -49t209 -138q4 -4 4 -10q0 -13 -14 -13q-6 0 -10 4q-85 85 -200 131.5t-247 46.5q-133 0 -249 -47.5t-199 -130.5t-130.5 -199t-47.5 -249q0 -177 81 -320t224.5 -224t320.5 -81q132 0 247 46.5t200 131.5q4 4 10 4q14 0 14 -13q0 -6 -4 -10
q-87 -87 -203 -135.5t-249 -51.5l-110 -167q62 -8 103.5 -54.5t41.5 -108.5q0 -68 -49.5 -116t-119.5 -48t-116 48q-4 4 -4 10q0 13 14 13q6 0 10 -4q38 -40 96 -40q59 0 100 40t41 97t-41 97.5t-100 40.5v0h-1h-1v0q-12 2 -12 13q0 6 4 10l111 169q-134 3 -252 54.5
t-202 137.5t-132.5 206t-48.5 255q0 183 85 333t235 235.5t333 85.5z" />
    <glyph glyph-name="egrave" unicode="&#xe8;" 
d="M300 1268h914q14 0 14 -14t-14 -14h-914q-13 0 -13 14t13 14zM300 628h823q14 0 14 -14q0 -13 -14 -13h-823q-13 0 -13 13q0 14 13 14zM300 -11h914q14 0 14 -14t-14 -14h-914q-13 0 -13 14t13 14zM565 1890q-14 0 -14 -13q0 -9 8 -13l366 -183q2 -1 6 -1q14 0 14 14
q0 8 -8 12l-366 183q-2 1 -6 1z" />
    <glyph glyph-name="eacute" unicode="&#xe9;" 
d="M300 1268h914q14 0 14 -14t-14 -14h-914q-13 0 -13 14t13 14zM300 628h823q14 0 14 -14q0 -13 -14 -13h-823q-13 0 -13 13q0 14 13 14zM300 -11h914q14 0 14 -14t-14 -14h-914q-13 0 -13 14t13 14zM931 1890q14 0 14 -13q0 -9 -8 -13l-365 -183q-2 -1 -7 -1q-14 0 -14 14
q0 8 8 12l366 183q2 1 6 1z" />
    <glyph glyph-name="ecircumflex" unicode="&#xea;" 
d="M300 1268h914q14 0 14 -14t-14 -14h-914q-13 0 -13 14t13 14zM300 628h823q14 0 14 -14q0 -13 -14 -13h-823q-13 0 -13 13q0 14 13 14zM300 -11h914q14 0 14 -14t-14 -14h-914q-13 0 -13 14t13 14zM806 1890h1q4 0 6 -1l366 -183q7 -4 7 -12q0 -14 -13 -14q-3 0 -7 2
l-359 179l-359 -179q-4 -2 -7 -2q-14 0 -14 14q0 8 8 12l366 183q1 1 5 1z" />
    <glyph glyph-name="edieresis" unicode="&#xeb;" 
d="M300 1268h914q14 0 14 -14t-14 -14h-914q-13 0 -13 14t13 14zM300 628h823q14 0 14 -14q0 -13 -14 -13h-823q-13 0 -13 13q0 14 13 14zM300 -11h914q14 0 14 -14t-14 -14h-914q-13 0 -13 14t13 14zM1059 1785q0 -24 -17.5 -41t-42.5 -17q-24 0 -40 17t-16 41t16 41t40 17
q25 0 42.5 -17t17.5 -41zM628 1785q0 -24 -17.5 -41t-42.5 -17q-24 0 -40 17t-16 41t16 41t40 17q25 0 42.5 -17t17.5 -41z" />
    <glyph glyph-name="igrave" unicode="&#xec;" horiz-adv-x="600" 
d="M151 1890q-14 0 -14 -13q0 -9 8 -13l365 -183q2 -1 7 -1q13 0 13 14q0 8 -8 12l-365 183q-2 1 -6 1zM287 1254q0 5 4 9.5t9 4.5q14 0 14 -14v-1279q0 -14 -14 -14q-5 0 -9 4.5t-4 9.5v1279z" />
    <glyph glyph-name="iacute" unicode="&#xed;" horiz-adv-x="600" 
d="M478 1890q14 0 14 -13q0 -9 -8 -13l-366 -183q-2 -1 -6 -1q-14 0 -14 14q0 8 8 12l365 183q2 1 7 1zM287 1254q0 5 4 9.5t9 4.5q14 0 14 -14v-1279q0 -14 -14 -14q-5 0 -9 4.5t-4 9.5v1279z" />
    <glyph glyph-name="icircumflex" unicode="&#xee;" horiz-adv-x="600" 
d="M309 1890q4 0 6 -1l366 -183q8 -4 8 -12q0 -14 -14 -14q-2 0 -6 2l-360 179l-359 -179q-4 -2 -7 -2q-13 0 -13 14q0 8 8 12l365 183q1 1 6 1zM287 1254q0 5 4 9.5t9 4.5q14 0 14 -14v-1279q0 -14 -14 -14q-5 0 -9 4.5t-4 9.5v1279z" />
    <glyph glyph-name="idieresis" unicode="&#xef;" horiz-adv-x="600" 
d="M575 1785q0 -24 -17.5 -41t-42.5 -17q-24 0 -40.5 17t-16.5 41t16.5 41t40.5 17q25 0 42.5 -17t17.5 -41zM144 1785q0 -24 -17.5 -41t-42.5 -17q-24 0 -40.5 17t-16.5 41t16.5 41t40.5 17q25 0 42.5 -17t17.5 -41zM287 1254q0 5 4 9.5t9 4.5q14 0 14 -14v-1279
q0 -14 -14 -14q-5 0 -9 4.5t-4 9.5v1279z" />
    <glyph glyph-name="eth" unicode="&#xf0;" 
d="M483 1240h-169v-612h480h1q13 0 13 -14q0 -13 -13 -13h-1h-480v-612h169q384 0 562 178q155 155 155 447q0 293 -155 448q-178 178 -562 178zM300 1268h183q394 0 581 -187q164 -164 164 -467q0 -302 -164 -466q-187 -187 -581 -187h-183q-13 0 -13 14v626h-315
q-14 0 -14 13q0 14 14 14h315v626q0 14 13 14z" />
    <glyph glyph-name="ntilde" unicode="&#xf1;" 
d="M568 1869q44 0 83 -12.5t58 -24.5t50 -36q31 -23 48 -34t51.5 -22t75.5 -11q53 0 118 43q15 10 28.5 21t19.5 17l7 6q4 4 10 4q13 0 13 -14q0 -5 -4 -9q-24 -24 -59 -48q-70 -48 -133 -48q-44 0 -83 12.5t-58 24.5t-50 36q-31 23 -48 34t-51.5 22t-75.5 11
q-54 0 -118 -43q-15 -10 -28.5 -21t-19.5 -17l-7 -6q-4 -4 -9 -4q-14 0 -14 14q0 5 4 9q24 24 59 48q70 48 133 48zM1214 1268q14 0 14 -14v-1279q0 -14 -14 -14q-7 0 -11 6l-889 1244v-1236q0 -14 -14 -14q-13 0 -13 14v1279q0 14 13 14q8 0 12 -6l888 -1245v1237
q0 5 4.5 9.5t9.5 4.5z" />
    <glyph glyph-name="ograve" unicode="&#xf2;" horiz-adv-x="1878" 
d="M776 1890q-14 0 -14 -13q0 -9 8 -13l365 -183q2 -1 7 -1q13 0 13 14q0 8 -8 12l-365 183q-2 1 -6 1zM924 1268q137 0 261.5 -52t213.5 -139.5t141.5 -208.5t52.5 -254t-52.5 -254t-141.5 -208.5t-213.5 -139t-261.5 -51.5q-182 0 -329 88t-227.5 237t-80.5 328
q0 134 47.5 254t130.5 208t202.5 140t256.5 52zM924 1240q-175 0 -315.5 -84t-217.5 -227t-77 -315t77 -315t217.5 -226.5t315.5 -83.5q132 0 251 49.5t204.5 133t136 199t50.5 243.5q0 170 -85 314t-233 228t-324 84z" />
    <glyph glyph-name="oacute" unicode="&#xf3;" horiz-adv-x="1878" 
d="M1103 1890q13 0 13 -13q0 -9 -7 -13l-366 -183q-2 -1 -6 -1q-14 0 -14 14q0 8 8 12l365 183q2 1 7 1zM924 1268q137 0 261.5 -52t213.5 -139.5t141.5 -208.5t52.5 -254t-52.5 -254t-141.5 -208.5t-213.5 -139t-261.5 -51.5q-182 0 -329 88t-227.5 237t-80.5 328
q0 134 47.5 254t130.5 208t202.5 140t256.5 52zM924 1240q-175 0 -315.5 -84t-217.5 -227t-77 -315t77 -315t217.5 -226.5t315.5 -83.5q132 0 251 49.5t204.5 133t136 199t50.5 243.5q0 170 -85 314t-233 228t-324 84z" />
    <glyph glyph-name="ocircumflex" unicode="&#xf4;" horiz-adv-x="1878" 
d="M925 1890h1q4 0 6 -1l365 -183q8 -4 8 -12q0 -14 -14 -14q-2 0 -6 2l-359 179l-360 -179q-4 -2 -6 -2q-14 0 -14 14q0 8 8 12l366 183q1 1 5 1zM924 1268q137 0 261.5 -52t213.5 -139.5t141.5 -208.5t52.5 -254t-52.5 -254t-141.5 -208.5t-213.5 -139t-261.5 -51.5
q-182 0 -329 88t-227.5 237t-80.5 328q0 134 47.5 254t130.5 208t202.5 140t256.5 52zM924 1240q-175 0 -315.5 -84t-217.5 -227t-77 -315t77 -315t217.5 -226.5t315.5 -83.5q132 0 251 49.5t204.5 133t136 199t50.5 243.5q0 170 -85 314t-233 228t-324 84z" />
    <glyph glyph-name="otilde" unicode="&#xf5;" horiz-adv-x="1878" 
d="M769 1869q44 0 83 -12.5t58 -24.5t50 -36q31 -23 48 -34t51.5 -22t75.5 -11q53 0 118 43q15 10 28.5 21t20.5 17l6 6q4 4 9 4q14 0 14 -14q0 -5 -4 -9q-24 -24 -59 -48q-70 -48 -133 -48q-44 0 -83 12.5t-58 24.5t-50 36q-31 23 -48 34t-51.5 22t-75.5 11q-53 0 -118 -43
q-15 -10 -28.5 -21t-20.5 -17l-6 -6q-4 -4 -10 -4q-13 0 -13 14q0 5 4 9q24 24 59 48q70 48 133 48zM924 1268q137 0 261.5 -52t213.5 -139.5t141.5 -208.5t52.5 -254t-52.5 -254t-141.5 -208.5t-213.5 -139t-261.5 -51.5q-182 0 -329 88t-227.5 237t-80.5 328
q0 134 47.5 254t130.5 208t202.5 140t256.5 52zM924 1240q-175 0 -315.5 -84t-217.5 -227t-77 -315t77 -315t217.5 -226.5t315.5 -83.5q132 0 251 49.5t204.5 133t136 199t50.5 243.5q0 170 -85 314t-233 228t-324 84z" />
    <glyph glyph-name="odieresis" unicode="&#xf6;" horiz-adv-x="1878" 
d="M1217 1785q0 -24 -17.5 -41t-42.5 -17q-24 0 -40.5 17t-16.5 41t16.5 41t40.5 17q25 0 42.5 -17t17.5 -41zM786 1785q0 -24 -17.5 -41t-42.5 -17q-24 0 -40.5 17t-16.5 41t16.5 41t40.5 17q25 0 42.5 -17t17.5 -41zM924 1268q137 0 261.5 -52t213.5 -139.5t141.5 -208.5
t52.5 -254t-52.5 -254t-141.5 -208.5t-213.5 -139t-261.5 -51.5q-182 0 -329 88t-227.5 237t-80.5 328q0 134 47.5 254t130.5 208t202.5 140t256.5 52zM924 1240q-175 0 -315.5 -84t-217.5 -227t-77 -315t77 -315t217.5 -226.5t315.5 -83.5q132 0 251 49.5t204.5 133
t136 199t50.5 243.5q0 170 -85 314t-233 228t-324 84z" />
    <glyph glyph-name="divide" unicode="&#xf7;" horiz-adv-x="849" 
d="M457 785q0 -20 -14.5 -34.5t-35.5 -14.5t-34.5 14t-13.5 35t13.5 35t34.5 14t35.5 -14.5t14.5 -34.5zM457 440q0 -20 -14.5 -34.5t-35.5 -14.5t-34.5 14t-13.5 35q0 20 13.5 34t34.5 14t35.5 -14t14.5 -34zM14 628h822h1q13 0 13 -14q0 -13 -13 -13h-1h-822q-14 0 -14 13
q0 14 14 14z" />
    <glyph glyph-name="oslash" unicode="&#xf8;" horiz-adv-x="1878" 
d="M470 188l888 889q-182 163 -434 163q-175 0 -315.5 -84t-217.5 -227t-77 -315q0 -248 156 -426zM488 168q83 -85 194.5 -132t241.5 -47q132 0 251 49.5t204.5 133t136 199t50.5 243.5q0 127 -49.5 242t-138.5 201zM469 149l-122 -122q-9 -9 -19 0t0 19l123 123
q-79 89 -121.5 203t-42.5 242q0 134 47.5 254t130.5 208t202.5 140t256.5 52q130 0 246.5 -45t207.5 -127l100 100q10 10 19 0t0 -19l-99 -100q92 -90 143.5 -209.5t51.5 -253.5q0 -133 -52.5 -254t-141.5 -208.5t-213.5 -139t-261.5 -51.5q-135 0 -251.5 49.5t-203.5 138.5
z" />
    <glyph glyph-name="ugrave" unicode="&#xf9;" horiz-adv-x="1593" 
d="M639 1890q-14 0 -14 -13q0 -9 8 -13l365 -183q2 -1 7 -1q14 0 14 14q0 8 -8 12l-366 183q-2 1 -6 1zM300 1268q14 0 14 -14v-782q0 -132 64.5 -243.5t175.5 -176t243 -64.5t243 64.5t175.5 176t64.5 243.5v782q0 14 14 14t14 -14v-782q0 -212 -149.5 -361.5
t-361.5 -149.5t-361 149.5t-149 361.5v782q0 5 4 9.5t9 4.5z" />
    <glyph glyph-name="uacute" unicode="&#xfa;" horiz-adv-x="1593" 
d="M1005 1890q14 0 14 -13q0 -9 -8 -13l-366 -183q-2 -1 -6 -1q-14 0 -14 14q0 8 8 12l366 183q2 1 6 1zM300 1268q14 0 14 -14v-782q0 -132 64.5 -243.5t175.5 -176t243 -64.5t243 64.5t175.5 176t64.5 243.5v782q0 14 14 14t14 -14v-782q0 -212 -149.5 -361.5
t-361.5 -149.5t-361 149.5t-149 361.5v782q0 5 4 9.5t9 4.5z" />
    <glyph glyph-name="ucircumflex" unicode="&#xfb;" horiz-adv-x="1593" 
d="M798 1890h1q4 0 6 -1l365 -183q8 -4 8 -12q0 -14 -14 -14q-2 0 -6 2l-359 179l-360 -179q-4 -2 -6 -2q-14 0 -14 14q0 8 8 12l366 183q1 1 5 1zM300 1268q14 0 14 -14v-782q0 -132 64.5 -243.5t175.5 -176t243 -64.5t243 64.5t175.5 176t64.5 243.5v782q0 14 14 14
t14 -14v-782q0 -212 -149.5 -361.5t-361.5 -149.5t-361 149.5t-149 361.5v782q0 5 4 9.5t9 4.5z" />
    <glyph glyph-name="udieresis" unicode="&#xfc;" horiz-adv-x="1593" 
d="M1088 1785q0 -24 -17.5 -41t-42.5 -17q-24 0 -40.5 17t-16.5 41t16.5 41t40.5 17q25 0 42.5 -17t17.5 -41zM657 1785q0 -24 -17.5 -41t-42.5 -17q-24 0 -40.5 17t-16.5 41t16.5 41t40.5 17q25 0 42.5 -17t17.5 -41zM300 1268q14 0 14 -14v-782q0 -132 64.5 -243.5
t175.5 -176t243 -64.5t243 64.5t175.5 176t64.5 243.5v782q0 14 14 14t14 -14v-782q0 -212 -149.5 -361.5t-361.5 -149.5t-361 149.5t-149 361.5v782q0 5 4 9.5t9 4.5z" />
    <glyph glyph-name="yacute" unicode="&#xfd;" horiz-adv-x="1697" 
d="M1052 1890q14 0 14 -13q0 -9 -8 -13l-365 -183q-2 -1 -7 -1q-14 0 -14 14q0 8 8 12l366 183q2 1 6 1zM1397 1268h1q14 0 14 -14q0 -5 -4 -9l-545 -695v-575v-1q0 -13 -14 -13t-14 13v1v575l-545 695q-3 3 -3 9q0 14 14 14q7 0 11 -6l537 -685l537 685q4 6 11 6z" />
    <glyph glyph-name="thorn" unicode="&#xfe;" 
d="M301 1268q13 0 13 -14v-283h444q179 0 303 -68q167 -91 167 -288q0 -195 -167 -288q-124 -69 -303 -69h-444v-283q0 -14 -13 -14q-14 0 -14 14v296v683v3v3v294q0 5 4.5 9.5t9.5 4.5zM314 943v-657h444q173 0 290 65q153 85 153 264t-153 264q-115 64 -290 64h-444z" />
    <glyph glyph-name="ydieresis" unicode="&#xff;" horiz-adv-x="1697" 
d="M1116 1785q0 -24 -17 -41t-42 -17q-24 0 -40.5 17t-16.5 41t16.5 41t40.5 17q25 0 42 -17t17 -41zM685 1785q0 -24 -17 -41t-42 -17q-24 0 -40.5 17t-16.5 41t16.5 41t40.5 17q25 0 42 -17t17 -41zM1397 1268h1q14 0 14 -14q0 -5 -4 -9l-545 -695v-575v-1q0 -13 -14 -13
t-14 13v1v575l-545 695q-3 3 -3 9q0 14 14 14q7 0 11 -6l537 -685l537 685q4 6 11 6z" />
    <glyph glyph-name="Lslash" unicode="&#x141;" 
d="M300 1268q14 0 14 -14v-651l407 190h1q13 5 18 -7q5 -13 -7 -18l-419 -195v-585h900q14 0 14 -13q0 -14 -14 -14h-914q-13 0 -13 14v585l-299 -140h-1q-13 -5 -18 7q-5 13 7 18l311 145v664q0 5 4 9.5t9 4.5z" />
    <glyph glyph-name="lslash" unicode="&#x142;" 
d="M300 1268q14 0 14 -14v-651l407 190h1q13 5 18 -7q5 -13 -7 -18l-419 -195v-585h900q14 0 14 -13q0 -14 -14 -14h-914q-13 0 -13 14v585l-299 -140h-1q-13 -5 -18 7q-5 13 7 18l311 145v664q0 5 4 9.5t9 4.5z" />
    <glyph glyph-name="OE" unicode="&#x152;" horiz-adv-x="2676" 
d="M979 1307q276 0 471 -176v123q0 14 13 14h914q14 0 14 -14t-14 -14h-900v-612h809q13 0 13 -14q0 -13 -13 -13h-809v-467l1 -2v-2v-1q-1 -1 -1 -2v-138h900q14 0 14 -14t-14 -14h-914q-13 0 -13 14v123q-195 -176 -471 -176q-146 0 -274.5 53t-220 144.5t-144.5 220
t-53 274.5q0 195 90 353.5t248.5 249t353.5 90.5zM979 1279q-141 0 -264.5 -50.5t-211.5 -138.5t-138.5 -211.5t-50.5 -264.5t50.5 -264.5t138.5 -211t211.5 -138t264.5 -50.5q139 0 260 48.5t211 137.5v478v479q-90 89 -211 137.5t-260 48.5z" />
    <glyph glyph-name="oe" unicode="&#x153;" horiz-adv-x="2676" 
d="M979 1307q276 0 471 -176v123q0 14 13 14h914q14 0 14 -14t-14 -14h-900v-612h809q13 0 13 -14q0 -13 -13 -13h-809v-467l1 -2v-2v-1q-1 -1 -1 -2v-138h900q14 0 14 -14t-14 -14h-914q-13 0 -13 14v123q-195 -176 -471 -176q-146 0 -274.5 53t-220 144.5t-144.5 220
t-53 274.5q0 195 90 353.5t248.5 249t353.5 90.5zM979 1279q-141 0 -264.5 -50.5t-211.5 -138.5t-138.5 -211.5t-50.5 -264.5t50.5 -264.5t138.5 -211t211.5 -138t264.5 -50.5q139 0 260 48.5t211 137.5v478v479q-90 89 -211 137.5t-260 48.5z" />
    <glyph glyph-name="Scaron" unicode="&#x160;" horiz-adv-x="1150" 
d="M612 1680q4 0 6 1l366 183q8 4 8 12q0 14 -14 14q-4 0 -6 -1l-360 -180l-359 180q-2 1 -7 1q-13 0 -13 -13q0 -9 8 -13l365 -183q1 -1 6 -1zM607 1268q169 0 301 -46t212 -124q5 -5 5 -10q0 -14 -14 -14q-5 0 -10 5q-75 73 -202.5 117t-291.5 44q-253 0 -410 -108
q-68 -47 -104.5 -104.5t-36.5 -113.5q0 -65 44 -114q38 -43 119 -78q106 -45 374 -96q271 -52 380 -97q84 -35 129 -84q51 -56 51 -129q0 -81 -48 -148t-130 -114q-163 -93 -384 -93q-350 0 -585 174q-6 4 -6 11q0 14 14 14q5 0 8 -3q227 -168 569 -168q214 0 370 89
q164 93 164 238q0 63 -43 111q-39 43 -120 77q-47 20 -116 38.5t-118.5 29t-139.5 27.5q-274 52 -379 97q-84 36 -129 86q-51 56 -51 132q0 64 39.5 127t112.5 113q167 114 426 114z" />
    <glyph glyph-name="scaron" unicode="&#x161;" horiz-adv-x="1150" 
d="M612 1680q4 0 6 1l366 183q8 4 8 12q0 14 -14 14q-4 0 -6 -1l-360 -180l-359 180q-2 1 -7 1q-13 0 -13 -13q0 -9 8 -13l365 -183q1 -1 6 -1zM607 1268q169 0 301 -46t212 -124q5 -5 5 -10q0 -14 -14 -14q-5 0 -10 5q-75 73 -202.5 117t-291.5 44q-253 0 -410 -108
q-68 -47 -104.5 -104.5t-36.5 -113.5q0 -65 44 -114q38 -43 119 -78q106 -45 374 -96q271 -52 380 -97q84 -35 129 -84q51 -56 51 -129q0 -81 -48 -148t-130 -114q-163 -93 -384 -93q-350 0 -585 174q-6 4 -6 11q0 14 14 14q5 0 8 -3q227 -168 569 -168q214 0 370 89
q164 93 164 238q0 63 -43 111q-39 43 -120 77q-47 20 -116 38.5t-118.5 29t-139.5 27.5q-274 52 -379 97q-84 36 -129 86q-51 56 -51 132q0 64 39.5 127t112.5 113q167 114 426 114z" />
    <glyph glyph-name="Ydieresis" unicode="&#x178;" horiz-adv-x="1697" 
d="M1116 1785q0 -24 -17 -41t-42 -17q-24 0 -40.5 17t-16.5 41t16.5 41t40.5 17q25 0 42 -17t17 -41zM685 1785q0 -24 -17 -41t-42 -17q-24 0 -40.5 17t-16.5 41t16.5 41t40.5 17q25 0 42 -17t17 -41zM1397 1268h1q14 0 14 -14q0 -5 -4 -9l-545 -695v-575v-1q0 -13 -14 -13
t-14 13v1v575l-545 695q-3 3 -3 9q0 14 14 14q7 0 11 -6l537 -685l537 685q4 6 11 6z" />
    <glyph glyph-name="Zcaron" unicode="&#x17d;" 
d="M794 1680h1q4 0 6 1l365 183q8 4 8 12q0 14 -14 14q-4 0 -6 -1l-359 -180l-360 180q-2 1 -6 1q-14 0 -14 -13q0 -9 8 -13l366 -183q1 -1 5 -1zM1214 1268q14 0 14 -14q0 -4 -2 -8l-899 -1257h887h1q13 0 13 -14t-13 -14h-1h-913q-14 0 -14 14q0 2 3 8l898 1257h-887h-1
q-13 0 -13 14q0 13 13 13h1z" />
    <glyph glyph-name="zcaron" unicode="&#x17e;" 
d="M794 1680h1q4 0 6 1l365 183q8 4 8 12q0 14 -14 14q-4 0 -6 -1l-359 -180l-360 180q-2 1 -6 1q-14 0 -14 -13q0 -9 8 -13l366 -183q1 -1 5 -1zM1214 1268q14 0 14 -14q0 -4 -2 -8l-899 -1257h887h1q13 0 13 -14t-13 -14h-1h-913q-14 0 -14 14q0 2 3 8l898 1257h-887h-1
q-13 0 -13 14q0 13 13 13h1z" />
    <glyph glyph-name="circumflex" unicode="&#x2c6;" horiz-adv-x="757" 
d="M379 1890h1q4 0 6 -1l365 -183q8 -4 8 -12q0 -14 -14 -14q-2 0 -6 2l-359 179l-360 -179q-4 -2 -6 -2q-14 0 -14 14q0 8 8 12l366 183q1 1 5 1z" />
    <glyph glyph-name="caron" unicode="&#x2c7;" horiz-adv-x="757" 
d="M379 1680h1q4 0 6 1l365 183q8 4 8 12q0 14 -14 14q-4 0 -6 -1l-359 -180l-360 180q-2 1 -6 1q-14 0 -14 -13q0 -9 8 -13l366 -183q1 -1 5 -1z" />
    <glyph glyph-name="breve" unicode="&#x2d8;" horiz-adv-x="327" 
d="M329 1882v-97q0 -68 -49 -116.5t-119 -48.5q-69 0 -115 48.5t-46 116.5v97h27v-97q0 -58 37.5 -97.5t96.5 -39.5t100 40t41 97v97h27z" />
    <glyph glyph-name="dotaccent" unicode="&#x2d9;" horiz-adv-x="114" 
d="M116 1785q0 -24 -17 -41t-42 -17q-24 0 -40.5 17t-16.5 41t16.5 41t40.5 17q25 0 42 -17t17 -41z" />
    <glyph glyph-name="ring" unicode="&#x2da;" horiz-adv-x="327" 
d="M161 1950q70 0 119 -48.5t49 -116.5t-49 -116.5t-119 -48.5q-69 0 -115 48.5t-46 116.5t46 116.5t115 48.5zM161 1922q-59 0 -96.5 -39.5t-37.5 -97.5t37.5 -97.5t96.5 -39.5t100 40t41 97t-41 97t-100 40z" />
    <glyph glyph-name="tilde" unicode="&#x2dc;" horiz-adv-x="757" 
d="M196 1869q44 0 83 -12.5t58.5 -25t50.5 -35.5q31 -24 47.5 -34.5t51 -21.5t75.5 -11q54 0 118 43q15 10 28.5 21t19.5 17l7 6q4 4 10 4q13 0 13 -14q0 -5 -4 -9q-24 -24 -59 -48q-70 -48 -133 -48q-44 0 -83 12.5t-58 24.5t-50 36q-31 23 -48 34t-51.5 22t-75.5 11
q-54 0 -118 -43q-15 -10 -28.5 -21t-19.5 -17l-7 -6q-4 -4 -9 -4q-14 0 -14 14q0 5 4 9q24 24 59 48q70 48 133 48z" />
    <glyph glyph-name="hungarumlaut" unicode="&#x2dd;" horiz-adv-x="776" 
d="M380 1890q14 0 14 -13q0 -9 -8 -13l-366 -183q-2 -1 -6 -1q-14 0 -14 14q0 8 8 12l366 183q2 1 6 1zM763 1890q13 0 13 -13q0 -9 -7 -13l-366 -183q-2 -1 -6 -1q-14 0 -14 14q0 8 8 12l365 183q2 1 7 1z" />
    <glyph glyph-name="emdash" unicode="&#x2014;" horiz-adv-x="849" 
d="M14 628h822h1q13 0 13 -14q0 -13 -13 -13h-1h-822q-14 0 -14 13q0 14 14 14z" />
    <glyph glyph-name="quoteright" unicode="&#x2019;" horiz-adv-x="301" 
d="M288 1355q5 0 9.5 -4.5t4.5 -9.5q0 -3 -2 -7l-275 -457q-3 -6 -11 -6q-14 0 -14 13q0 3 2 7l274 457q4 7 12 7z" />
    <glyph glyph-name="Euro" unicode="&#x20ac;" horiz-adv-x="1679" 
d="M1123 1268q136 0 262 -52q8 -3 8 -12q0 -14 -13 -14q-4 0 -5 1q-118 49 -252 49q-237 0 -402.5 -147.5t-199.5 -373.5h328q14 0 14 -13q0 -14 -14 -14h-331q-5 -42 -5 -78q0 -35 5 -77h331q14 0 14 -14t-14 -14h-328q34 -226 199.5 -373t402.5 -147q134 0 252 49q1 1 5 1
q13 0 13 -14q0 -10 -8 -13q-124 -51 -262 -51q-123 0 -233 42t-191 115.5t-135 174t-71 216.5h-192h-1q-13 0 -13 14t13 14h1h189q-4 33 -4 77q0 45 4 78h-189h-1q-13 0 -13 14q0 13 13 13h1h192q35 237 209 393t421 156z" />
    <glyph glyph-name="a.1" unicode="&#xe000;" horiz-adv-x="1697" 
d="M1397 1268q14 0 14 -14v-1279q0 -9 -6.5 -12.5t-13.5 0t-7 12.5v398h-724l-349 -407q-6 -7 -13.5 -5t-9.5 9t3 14l1096 1279q5 5 10 5zM1384 1217l-701 -817h701v817z" />
    <glyph glyph-name="a.2" unicode="&#xe001;" horiz-adv-x="1695" 
d="M848 1268h1q8 0 12 -9l548 -1279q2 -2 2 -5q0 -14 -14 -14h-1097q-13 0 -13 14q0 4 1 5l548 1279q4 9 12 9zM849 1219l-528 -1230h1055z" />
    <glyph glyph-name="a.3" unicode="&#xe002;" horiz-adv-x="1695" 
d="M848 1268h1q9 0 12 -8l549 -1280q1 -2 1 -5q0 -14 -14 -14q-9 0 -13 9l-172 403h-726l-173 -403q-4 -9 -13 -9q-13 0 -13 14q0 3 1 5l548 1280q4 8 12 8zM849 1219l-351 -819h702z" />
    <glyph glyph-name="a.4" unicode="&#xe003;" horiz-adv-x="1697" 
d="M301 1268q-14 0 -14 -14v-1279q0 -9 6.5 -12.5t13.5 0t7 12.5v398h724l348 -407q6 -7 14 -5t10 9t-3 14l-1096 1279q-5 5 -10 5zM314 1217l701 -817h-701v817z" />
    <glyph glyph-name="b.1" unicode="&#xe004;" horiz-adv-x="1511" 
d="M300 1267h428q187 0 294 -50q158 -74 158 -251q0 -178 -158 -259q-57 -29 -132 -44q102 -14 169 -49q167 -86 167 -294q0 -206 -167 -296q-115 -62 -303 -62h-456q-13 0 -13 13v1279q0 13 13 13zM312 1241v-568h416q173 0 282 56q145 74 145 237q0 161 -144 228
q-101 47 -283 47h-416zM312 647v-659h444q181 0 291 59q153 82 153 273t-153 271q-107 56 -291 56h-28h-416z" />
    <glyph glyph-name="d.1" unicode="&#xe005;" 
d="M300 1268h183q394 0 581 -187q164 -164 164 -467q0 -302 -164 -466q-187 -187 -581 -187h-183q-13 0 -13 14v1279q0 14 13 14zM483 1240h-169v-1251h169q384 0 562 178q155 155 155 447q0 293 -155 448q-178 178 -562 178z" />
    <glyph glyph-name="e.1" unicode="&#xe006;" 
d="M300 1268h914q14 0 14 -14t-14 -14h-900v-612h809q13 0 13 -13.5t-13 -13.5h-809v-612h900q14 0 14 -14t-14 -14h-914q-13 0 -13 14v1279q0 14 13 14z" />
    <glyph glyph-name="e.2" unicode="&#xe007;" 
d="M300 1268h914q14 0 14 -14t-14 -14h-870l878 -614q6 -4 6 -12q0 -13 -14 -13h-870l878 -615q6 -4 6 -11q0 -14 -14 -14q-2 0 -8 3l-913 639q-6 4 -6 11q0 14 13 14h871l-878 615q-6 4 -6 11q0 14 13 14z" />
    <glyph glyph-name="f.1" unicode="&#xe008;" 
d="M300 1268h914q14 0 14 -14t-14 -14h-900v-612h809q13 0 13 -14q0 -13 -13 -13h-809v-626q0 -14 -14 -14q-13 0 -13 14v1279q0 14 13 14z" />
    <glyph glyph-name="f.2" unicode="&#xe009;" 
d="M300 1268h914q14 0 14 -14t-14 -14h-870l878 -614q6 -4 6 -12q0 -13 -14 -13h-900v-626q0 -14 -14 -14q-13 0 -13 14v639q0 14 13 14h871l-878 615q-6 4 -6 11q0 14 13 14z" />
    <glyph glyph-name="k.1" unicode="&#xe00a;" horiz-adv-x="1570" 
d="M300 1268q14 0 14 -14v-791l891 801q6 4 10 4q10 0 12.5 -9t-4.5 -15l-671 -604l728 -655q7 -6 4.5 -13.5t-9.5 -9.5t-14 3l-729 656l-218 -195v-451q0 -9 -6.5 -12.5t-13.5 0t-7 12.5v1279q0 14 13 14z" />
    <glyph glyph-name="k.2" unicode="&#xe00b;" 
d="M300 1268q14 0 14 -14v-613l892 624q6 3 8 3q14 0 14 -14q0 -7 -6 -11l-898 -629l898 -628q6 -4 6 -11q0 -14 -14 -14q-2 0 -8 3l-892 624v-613q0 -14 -14 -14q-13 0 -13 14v1279q0 5 4 9.5t9 4.5z" />
    <glyph glyph-name="l.1" unicode="&#xe00c;" 
d="M758 1268q5 0 9 -4.5t4 -9.5l-1 -2v-3l-450 -1261h894q14 0 14 -13q0 -14 -14 -14h-914q-13 0 -13 14q0 1 0.5 2t0.5 2l456 1280q4 9 13 9h1z" />
    <glyph glyph-name="m.1" unicode="&#xe00d;" horiz-adv-x="2426" 
d="M1214 1268q14 0 14 -14v-1236l889 1244q4 6 11 6q14 0 14 -14v-1279q0 -14 -14 -14t-14 14v1236l-889 -1244q-4 -6 -11 -6q-14 0 -14 14v1236l-888 -1244q-4 -6 -12 -6q-13 0 -13 14q0 4 2 8l914 1279q4 6 11 6z" />
    <glyph glyph-name="m.2" unicode="&#xe00e;" horiz-adv-x="1880" 
d="M300 1268q8 0 11 -5l629 -719l629 719q3 5 11 5q13 0 13 -14v-1279q0 -14 -13 -14q-14 0 -14 14v1243l-616 -704q-3 -4 -10 -4t-10 4l-616 704v-1243q0 -14 -14 -14q-13 0 -13 14v1279q0 5 4 9.5t9 4.5z" />
    <glyph glyph-name="m.3" unicode="&#xe00f;" horiz-adv-x="2426" 
d="M1215 1268h-1q-14 0 -14 -14v-1236l-888 1244q-4 6 -12 6q-13 0 -13 -14v-1279q0 -14 13 -14q14 0 14 14v1236l889 -1244q4 -6 11 -6q14 0 14 14v1236l889 -1244q4 -6 11 -6q14 0 14 14q0 2 -3 8l-914 1279q-4 6 -10 6z" />
    <glyph glyph-name="p.1" unicode="&#xe010;" 
d="M300 1268h457q180 0 304 -68q167 -91 167 -288q0 -195 -167 -288q-124 -69 -304 -69h-443v-580q0 -9 -7 -12.5t-13.5 0t-6.5 12.5v1279q0 14 13 14zM314 1240v-657h443q174 0 291 65q152 85 152 264t-152 264q-115 64 -291 64h-443z" />
    <glyph glyph-name="q.1" unicode="&#xe011;" horiz-adv-x="1878" 
d="M924 1268q137 0 261.5 -51.5t213.5 -139t141.5 -208.5t52.5 -254q0 -175 -87 -324t-237.5 -237.5t-330.5 -91.5v-261q0 -14 -14 -14t-14 14v261q-134 3 -251 55.5t-198 140.5t-127.5 206.5t-46.5 250.5q0 179 80.5 328t227.5 237t329 88zM924 1241q-175 0 -315.5 -84
t-217.5 -227t-77 -315q0 -170 75 -311.5t212 -226.5t309 -88v351v1q0 5 4.5 9t9.5 4q14 0 14 -13v-1v-351q173 3 317.5 88t227.5 227.5t83 310.5q0 170 -85 314t-233 228t-324 84z" />
    <glyph glyph-name="r.1" unicode="&#xe012;" 
d="M301 1268h457q179 0 303 -68q167 -91 167 -288q0 -195 -167 -288q-96 -53 -234 -66l399 -575q2 -4 2 -8q0 -14 -13 -14q-8 0 -12 6l-408 589q-13 -1 -37 -1h-444v-580q0 -14 -13 -14q-14 0 -14 14v594q0 14 14 14h457q173 0 290 65q153 85 153 264t-153 264
q-117 65 -290 65h-457h-1q-13 0 -13 13q0 14 13 14h1z" />
    <glyph glyph-name="r.2" unicode="&#xe013;" 
d="M301 1268h456q180 0 304 -68q167 -91 167 -288q0 -195 -167 -288q-96 -53 -234 -66l399 -575q2 -2 2 -8q0 -14 -13 -14q-8 0 -12 6l-408 589q-13 -1 -38 -1h-443v-580q0 -14 -13 -14q-14 0 -14 14v592v2v2v683q0 14 14 14zM314 1241v-658h443q174 0 291 65
q153 85 153 264t-153 264q-117 65 -291 65h-443z" />
    <glyph glyph-name="r.3" unicode="&#xe014;" horiz-adv-x="1605" 
d="M301 1268h457q179 0 303 -68q167 -91 167 -288q0 -183 -150 -277q-107 -66 -261 -77l499 -574q4 -4 4 -9q0 -14 -14 -14q-7 0 -10 5l-515 592q-3 3 -3 9v4q2 12 14 12q164 7 272 75q137 86 137 254q0 179 -153 264q-117 65 -290 65h-457h-1q-13 0 -13 13q0 14 13 14h1z
" />
    <glyph glyph-name="v.1" unicode="&#xe015;" horiz-adv-x="1697" 
d="M1384 1254q0 9 7 12.5t13.5 0t6.5 -12.5v-1280q0 -13 -14 -13q-5 0 -10 5l-1096 1279q-6 7 -3 14.5t10 8.5t13 -5l1073 -1251v1242z" />
    <glyph glyph-name="v.2" unicode="&#xe016;" horiz-adv-x="1697" 
d="M314 1254q0 9 -7 12.5t-13.5 0t-6.5 -12.5v-1280q0 -13 14 -13q5 0 10 5l1096 1279q6 7 3 14.5t-10.5 8.5t-13.5 -5l-1072 -1251v1242z" />
    <glyph glyph-name="w.1" unicode="&#xe017;" horiz-adv-x="2426" 
d="M300 1268q14 0 14 -14v-1236l889 1244q4 6 11 6q14 0 14 -14v-1236l889 1244q4 6 11 6q14 0 14 -14q0 -2 -3 -8l-914 -1279q-4 -6 -11 -6q-14 0 -14 14v1236l-888 -1244q-4 -6 -12 -6q-13 0 -13 14v1279q0 5 4 9.5t9 4.5z" />
    <glyph glyph-name="w.2" unicode="&#xe018;" horiz-adv-x="2793" 
d="M300 1268q9 0 13 -9l536 -1250l535 1250q4 9 13 9t13 -9l535 -1250l536 1250q4 9 12 9q14 0 14 -14q0 -5 -1 -6l-548 -1279q-3 -8 -13 -8q-9 0 -12 8l-536 1250l-536 -1250q-3 -8 -12 -8q-10 0 -13 8l-548 1279q-1 1 -1 6t4 9.5t9 4.5z" />
    <glyph glyph-name="w.3" unicode="&#xe019;" horiz-adv-x="2426" 
d="M2128 1268q-14 0 -14 -14v-1236l-889 1244q-4 6 -11 6q-13 0 -13 -14v-1236l-889 1244q-4 6 -12 6q-13 0 -13 -14q0 -4 2 -8l914 -1279q4 -6 11 -6q14 0 14 14v1236l889 -1244q4 -6 11 -6q14 0 14 14v1279q0 5 -4.5 9.5t-9.5 4.5z" />
    <glyph glyph-name="s.1" unicode="&#xe01a;" horiz-adv-x="1525" 
d="M313 1268q-14 0 -14 -14q0 -2 3 -8l898 -1257h-900q-13 0 -13 -14t13 -14h926q14 0 14 14q0 4 -2 8l-899 1257h887h1q14 0 14 14q0 13 -14 13h-1z" />
    </font>
</defs>
</svg>
